<svg width="181" height="243" viewBox="0 0 181 243" fill="none" xmlns="http://www.w3.org/2000/svg">
<path d="M31.5076 6.444C31.5076 2.596 34.4583 0 38.269 0C41.6303 0 43.2743 1.90533 44.021 3.624L40.7716 5.13733C40.4543 4.16533 39.4823 3.32533 38.269 3.32533C36.5503 3.32533 35.337 4.70667 35.337 6.444C35.337 8.18133 36.5503 9.56267 38.269 9.56267C39.4823 9.56267 40.4543 8.72267 40.7716 7.75067L44.021 9.24533C43.293 10.908 41.6303 12.888 38.269 12.888C34.4583 12.888 31.5076 10.2733 31.5076 6.444Z" fill="#7E7F81"/>
<path d="M51.186 8.14388C51.186 7.15321 50.606 6.38788 49.5607 6.38788C48.534 6.38788 47.954 7.15321 47.954 8.14388C47.954 9.15188 48.534 9.91854 49.5607 9.91854C50.606 9.91854 51.186 9.15188 51.186 8.14388ZM44.4993 8.14388C44.4993 5.62254 46.3673 3.41854 49.5607 3.41854C52.7727 3.41854 54.6407 5.62254 54.6407 8.14388C54.6407 10.6652 52.7727 12.8879 49.5607 12.8879C46.3673 12.8879 44.4993 10.6652 44.4993 8.14388Z" fill="#7E7F81"/>
<path d="M55.8871 0.20518H59.2484V12.6625H55.8871V0.20518Z" fill="#7E7F81"/>
<path d="M67.1834 8.14388C67.1834 7.15321 66.6034 6.38788 65.5581 6.38788C64.5314 6.38788 63.9514 7.15321 63.9514 8.14388C63.9514 9.15188 64.5314 9.91854 65.5581 9.91854C66.6034 9.91854 67.1834 9.15188 67.1834 8.14388ZM60.4968 8.14388C60.4968 5.62254 62.3648 3.41854 65.5581 3.41854C68.7701 3.41854 70.6381 5.62254 70.6381 8.14388C70.6381 10.6652 68.7701 12.8879 65.5581 12.8879C62.3648 12.8879 60.4968 10.6652 60.4968 8.14388Z" fill="#7E7F81"/>
<path d="M71.884 3.64255H75.2453V4.67055C75.8053 4.01588 76.9826 3.41855 78.0106 3.41855V6.63055C77.8426 6.57455 77.5626 6.53721 77.2453 6.53721C76.5346 6.53721 75.62 6.72388 75.2453 7.17188V12.6639H71.884V3.64255Z" fill="#7E7F81"/>
<path d="M90.1613 3.34376H87.7707V5.52909H90.1613C90.7973 5.52909 91.3 5.09976 91.3 4.44509C91.3 3.77309 90.7973 3.34376 90.1613 3.34376ZM83.9987 0.205091H90.6467C93.5613 0.205091 95.1293 2.14909 95.1293 4.48242C95.1293 6.79842 93.5613 8.66642 90.6467 8.66642H87.7707V12.6638H83.9987V0.205091Z" fill="#7E7F81"/>
<path d="M101.118 9.7123C100.894 9.39496 100.314 9.22696 99.793 9.22696C99.2316 9.22696 98.6156 9.41363 98.6156 9.97363C98.6156 10.535 99.2316 10.703 99.793 10.703C100.314 10.703 100.894 10.535 101.118 10.2163V9.7123ZM101.118 11.8043C100.614 12.439 99.513 12.887 98.3916 12.887C97.0463 12.887 95.2916 11.9723 95.2916 9.91763C95.2916 7.6763 97.0463 7.13496 98.3916 7.13496C99.569 7.13496 100.633 7.5083 101.118 8.12563V7.09763C101.118 6.46296 100.538 5.97763 99.437 5.97763C98.597 5.97763 97.645 6.31363 96.9343 6.85496L95.7956 4.78163C97.009 3.81096 98.6903 3.41896 100.054 3.41896C102.296 3.41896 104.48 4.20296 104.48 7.20963V12.663H101.118V11.8043Z" fill="#7E7F81"/>
<path d="M106.342 0.20518H109.703V12.6625H106.342V0.20518Z" fill="#7E7F81"/>
<path d="M114.389 7.06054H117.36C117.265 6.66854 116.948 5.97787 115.864 5.97787C114.837 5.97787 114.501 6.64987 114.389 7.06054ZM115.864 3.41921C118.517 3.41921 120.553 5.32321 120.553 8.49921V9.18987H114.427C114.613 9.76854 115.267 10.3285 116.407 10.3285C117.172 10.3285 117.993 10.0485 118.443 9.69387L119.824 11.7672C118.928 12.5325 117.321 12.8872 115.976 12.8872C113.156 12.8872 110.953 11.1139 110.953 8.14321C110.953 5.52854 112.952 3.41921 115.864 3.41921Z" fill="#7E7F81"/>
<path d="M122.396 10.0488V6.55551H120.901V3.64218H122.396V1.17685H125.757V3.64218H127.588V6.55551H125.757V9.07685C125.757 9.54485 126.056 9.91818 126.505 9.91818C126.804 9.91818 127.102 9.82485 127.177 9.75018L127.774 12.2902C127.42 12.6075 126.636 12.8875 125.496 12.8875C123.497 12.8875 122.396 11.9355 122.396 10.0488Z" fill="#7E7F81"/>
<path d="M129.526 10.0488V6.55551H128.031V3.64218H129.526V1.17685H132.887V3.64218H134.718V6.55551H132.887V9.07685C132.887 9.54485 133.186 9.91818 133.635 9.91818C133.934 9.91818 134.233 9.82485 134.307 9.75018L134.905 12.2902C134.55 12.6075 133.766 12.8875 132.626 12.8875C130.627 12.8875 129.526 11.9355 129.526 10.0488Z" fill="#7E7F81"/>
<path d="M138.786 7.06054H141.757C141.662 6.66854 141.345 5.97787 140.261 5.97787C139.234 5.97787 138.898 6.64987 138.786 7.06054ZM140.261 3.41921C142.914 3.41921 144.95 5.32321 144.95 8.49921V9.18987H138.824C139.01 9.76854 139.664 10.3285 140.804 10.3285C141.569 10.3285 142.39 10.0485 142.84 9.69387L144.221 11.7672C143.325 12.5325 141.718 12.8872 140.373 12.8872C137.553 12.8872 135.35 11.1139 135.35 8.14321C135.35 5.52854 137.349 3.41921 140.261 3.41921Z" fill="#7E7F81"/>
<path d="M71.7797 41.9668H69.8597V44.5122H71.7797C72.5717 44.5122 73.1477 44.0082 73.1477 43.2402C73.1477 42.4708 72.5717 41.9668 71.7797 41.9668ZM71.2517 45.7482H69.8597V48.7375H68.4544V40.7308H71.9731C73.5557 40.7308 74.5891 41.7628 74.5891 43.2402C74.5891 44.6682 73.6517 45.4362 72.6931 45.5922L74.6491 48.7375H73.0291L71.2517 45.7482Z" fill="#292F7B"/>
<path d="M79.8319 40.5983C81.3919 40.5983 82.4132 41.3423 83.0612 42.2663L81.9092 42.9156C81.4879 42.3156 80.7332 41.8476 79.8319 41.8476C78.2479 41.8476 77.0719 43.0596 77.0719 44.7396C77.0719 46.4209 78.2479 47.6449 79.8319 47.6449C80.6479 47.6449 81.3679 47.2609 81.7279 46.9249V45.6756H79.3399V44.4396H83.1332V47.4409C82.3412 48.3169 81.2252 48.8929 79.8319 48.8929C77.5159 48.8929 75.6319 47.2489 75.6319 44.7396C75.6319 42.2316 77.5159 40.5983 79.8319 40.5983Z" fill="#292F7B"/>
<path d="M88.3032 47.5007C89.0712 47.5007 89.5285 47.0807 89.5285 46.3847C89.5285 45.7834 89.1085 45.2794 88.3032 45.2794H85.9979V47.5007H88.3032ZM88.2432 44.0434C88.9645 44.0434 89.3725 43.6114 89.3725 43.0114C89.3725 42.4114 88.9645 41.9674 88.2432 41.9674H85.9979V44.0434H88.2432ZM84.5952 40.73H88.5325C89.9965 40.73 90.8139 41.642 90.8139 42.7714C90.8139 43.7794 90.1645 44.4514 89.4205 44.6087C90.2725 44.7394 90.9685 45.5914 90.9685 46.5767C90.9685 47.8127 90.1405 48.7367 88.6405 48.7367H84.5952V40.73Z" fill="#292F7B"/>
<path d="M95.1053 45.8203C95.1053 43.8869 95.7907 41.9069 96.9173 40.5149L97.6987 41.1029C96.908 42.5909 96.4747 43.9349 96.4747 45.8203C96.4747 47.7043 96.908 49.0483 97.6987 50.5256L96.9173 51.1256C95.7907 49.7456 95.1053 47.7523 95.1053 45.8203Z" fill="#292F7B"/>
<path d="M99.6313 45.6882H102.066V41.9908L99.6313 45.6882ZM102.066 46.9242H98.25V45.7962L101.539 40.7308H103.473V45.6882H104.541V46.9242H103.473V48.7375H102.066V46.9242Z" fill="#292F7B"/>
<path d="M105.475 47.6328C108.583 45.2795 109.795 44.2355 109.795 43.0835C109.795 42.2435 109.075 41.8581 108.342 41.8581C107.407 41.8581 106.686 42.2435 106.183 42.8195L105.366 41.8955C106.074 41.0435 107.203 40.6101 108.319 40.6101C109.868 40.6101 111.224 41.4875 111.224 43.0835C111.224 44.5595 109.868 45.8808 107.72 47.5008H111.272V48.7368H105.475V47.6328Z" fill="#292F7B"/>
<path d="M112.699 49.8653C113.082 49.6373 113.478 49.1453 113.562 48.7373C113.527 48.7493 113.431 48.7733 113.358 48.7733C112.95 48.7733 112.639 48.4613 112.639 48.0173C112.639 47.5599 113.01 47.1893 113.454 47.1893C113.947 47.1893 114.392 47.5853 114.392 48.2813C114.392 49.1093 113.923 49.8653 113.263 50.3333L112.699 49.8653Z" fill="#292F7B"/>
<path d="M119.754 45.6882H122.191V41.9908L119.754 45.6882ZM122.191 46.9242H118.374V45.7962L121.663 40.7308H123.595V45.6882H124.664V46.9242H123.595V48.7375H122.191V46.9242Z" fill="#292F7B"/>
<path d="M128.682 44.8119C127.998 44.8119 127.337 45.1839 126.93 45.7599C127.014 46.6239 127.483 47.6332 128.718 47.6332C129.774 47.6332 130.326 46.8892 130.326 46.2399C130.326 45.2559 129.558 44.8119 128.682 44.8119ZM129.019 40.6106C130.014 40.6106 130.782 40.9706 131.323 41.4986L130.662 42.5666C130.243 42.1226 129.787 41.8586 129.019 41.8586C127.686 41.8586 126.906 43.0946 126.906 44.4999C126.906 44.5839 126.906 44.6559 126.918 44.7279C127.277 44.1879 128.118 43.6119 129.066 43.6119C130.506 43.6119 131.743 44.4879 131.743 46.1919C131.743 47.6812 130.579 48.8812 128.79 48.8812C126.437 48.8812 125.489 46.9732 125.489 44.7519C125.489 42.4346 126.702 40.6106 129.019 40.6106Z" fill="#292F7B"/>
<path d="M132.894 49.8653C133.277 49.6373 133.673 49.1453 133.757 48.7373C133.722 48.7493 133.626 48.7733 133.553 48.7733C133.145 48.7733 132.834 48.4613 132.834 48.0173C132.834 47.5599 133.205 47.1893 133.649 47.1893C134.142 47.1893 134.588 47.5853 134.588 48.2813C134.588 49.1093 134.118 49.8653 133.458 50.3333L132.894 49.8653Z" fill="#292F7B"/>
<path d="M140.538 42.5553L139.231 43.9113L138.414 43.0593L140.719 40.73H141.943V48.7366H140.538V42.5553Z" fill="#292F7B"/>
<path d="M143.393 47.6328C146.501 45.2795 147.714 44.2355 147.714 43.0835C147.714 42.2435 146.993 41.8581 146.261 41.8581C145.325 41.8581 144.605 42.2435 144.101 42.8195L143.285 41.8955C143.993 41.0435 145.121 40.6101 146.238 40.6101C147.786 40.6101 149.142 41.4875 149.142 43.0835C149.142 44.5595 147.786 45.8808 145.638 47.5008H149.192V48.7368H143.393V47.6328Z" fill="#292F7B"/>
<path d="M150.978 46.6601C151.494 47.2601 152.344 47.6321 153.198 47.6321C154.254 47.6321 154.866 47.1521 154.866 46.4081C154.866 45.6161 154.23 45.2801 153.09 45.2801C152.754 45.2801 152.284 45.2801 152.166 45.2921V44.0308C152.31 44.0441 152.778 44.0441 153.09 44.0441C154.026 44.0441 154.734 43.7188 154.734 42.9868C154.734 42.2428 154.014 41.8588 153.114 41.8588C152.298 41.8588 151.626 42.1708 151.05 42.7468L150.33 41.8708C150.942 41.1508 151.912 40.6108 153.246 40.6108C154.975 40.6108 156.139 41.4268 156.139 42.7708C156.139 43.8401 155.227 44.4641 154.398 44.6081C155.178 44.6801 156.259 45.3161 156.259 46.5521C156.259 47.9095 155.095 48.8815 153.246 48.8815C151.818 48.8815 150.762 48.3041 150.222 47.5841L150.978 46.6601Z" fill="#292F7B"/>
<path d="M157.025 41.1028L157.806 40.5148C158.945 41.9068 159.629 43.8868 159.629 45.8202C159.629 47.7522 158.945 49.7455 157.806 51.1255L157.025 50.5255C157.83 49.0482 158.262 47.7042 158.262 45.8202C158.262 43.9362 157.83 42.5908 157.025 41.1028Z" fill="#292F7B"/>
<path d="M68.0949 59.1394C68.0949 56.6794 69.9309 54.998 72.2349 54.998C73.9162 54.998 74.9122 55.838 75.5122 56.7994L74.3136 57.4114C73.9282 56.75 73.1602 56.2474 72.2349 56.2474C70.7122 56.2474 69.5349 57.4594 69.5349 59.1394C69.5349 60.8207 70.7122 62.0327 72.2349 62.0327C73.1602 62.0327 73.9282 61.5407 74.3136 60.8674L75.5122 61.4807C74.9002 62.4407 73.9162 63.2807 72.2349 63.2807C69.9309 63.2807 68.0949 61.6007 68.0949 59.1394Z" fill="#292F7B"/>
<path d="M83.5532 57.0748L81.0919 63.1362H80.4919L78.0425 57.0748V63.1362H76.6385V55.1308H78.6185L80.7919 60.5202L82.9759 55.1308H84.9572V63.1362H83.5532V57.0748Z" fill="#292F7B"/>
<path d="M88.9282 59.8119L85.8189 55.1305H87.4269L89.6362 58.5625L91.8202 55.1305H93.4282L90.3322 59.8119V63.1372H88.9282V59.8119Z" fill="#292F7B"/>
<path d="M96.4035 59.7636L95.7075 60.5796V63.137H94.3035V55.1303H95.7075V58.9476L98.8395 55.1303H100.581L97.3261 58.9116L100.821 63.137H99.0928L96.4035 59.7636Z" fill="#292F7B"/>
<path d="M104.491 60.22C104.491 58.2867 105.175 56.3067 106.303 54.9147L107.083 55.5027C106.291 56.9907 105.857 58.3347 105.857 60.22C105.857 62.104 106.291 63.448 107.083 64.9253L106.303 65.5253C105.175 64.1453 104.491 62.152 104.491 60.22Z" fill="#292F7B"/>
<path d="M109.603 56.9551L108.295 58.3111L107.477 57.4591L109.783 55.1297H111.007V63.1364H109.603V56.9551Z" fill="#292F7B"/>
<path d="M115.556 56.2584C114.247 56.2584 113.779 57.6157 113.779 59.1397C113.779 60.6637 114.247 62.0331 115.556 62.0331C116.863 62.0331 117.332 60.6637 117.332 59.1397C117.332 57.6157 116.863 56.2584 115.556 56.2584ZM115.556 55.0104C117.801 55.0104 118.76 57.1224 118.76 59.1397C118.76 61.1557 117.801 63.2811 115.556 63.2811C113.311 63.2811 112.351 61.1557 112.351 59.1397C112.351 57.1224 113.311 55.0104 115.556 55.0104Z" fill="#292F7B"/>
<path d="M122.946 56.2584C121.64 56.2584 121.17 57.6157 121.17 59.1397C121.17 60.6637 121.64 62.0331 122.946 62.0331C124.254 62.0331 124.724 60.6637 124.724 59.1397C124.724 57.6157 124.254 56.2584 122.946 56.2584ZM122.946 55.0104C125.192 55.0104 126.152 57.1224 126.152 59.1397C126.152 61.1557 125.192 63.2811 122.946 63.2811C120.701 63.2811 119.742 61.1557 119.742 59.1397C119.742 57.1224 120.701 55.0104 122.946 55.0104Z" fill="#292F7B"/>
<path d="M127.026 64.265C127.41 64.037 127.806 63.545 127.889 63.137C127.854 63.149 127.759 63.173 127.686 63.173C127.277 63.173 126.966 62.861 126.966 62.417C126.966 61.9596 127.337 61.589 127.782 61.589C128.275 61.589 128.719 61.985 128.719 62.681C128.719 63.509 128.251 64.265 127.59 64.733L127.026 64.265Z" fill="#292F7B"/>
<path d="M135.847 56.2467C134.803 56.2467 134.251 57.0027 134.251 57.6387C134.251 58.624 135.019 59.068 135.882 59.068C136.566 59.068 137.239 58.708 137.635 58.132C137.563 57.2667 137.083 56.2467 135.847 56.2467ZM133.902 61.324C134.321 61.756 134.79 62.02 135.546 62.02C136.998 62.02 137.659 60.7 137.659 59.392V59.152C137.287 59.6907 136.446 60.28 135.511 60.28C134.07 60.28 132.821 59.392 132.821 57.6867C132.821 56.2107 133.986 54.9973 135.774 54.9973C138.127 54.9973 139.077 56.9067 139.077 59.1387C139.077 61.444 137.863 63.2693 135.546 63.2693C134.562 63.2693 133.794 62.92 133.254 62.38L133.902 61.324Z" fill="#292F7B"/>
<path d="M144.055 56.3665H139.903V55.1305H145.676V56.1025L142.567 63.1372H141.029L144.055 56.3665Z" fill="#292F7B"/>
<path d="M145.506 64.265C145.889 64.037 146.285 63.545 146.369 63.137C146.334 63.149 146.238 63.173 146.165 63.173C145.757 63.173 145.446 62.861 145.446 62.417C145.446 61.9596 145.817 61.589 146.261 61.589C146.754 61.589 147.2 61.985 147.2 62.681C147.2 63.509 146.73 64.265 146.07 64.733L145.506 64.265Z" fill="#292F7B"/>
<path d="M153.15 56.9551L151.843 58.3111L151.026 57.4591L153.331 55.1297H154.555V63.1364H153.15V56.9551Z" fill="#292F7B"/>
<path d="M156.006 62.0325C159.114 59.6792 160.326 58.6352 160.326 57.4832C160.326 56.6432 159.606 56.2579 158.873 56.2579C157.938 56.2579 157.217 56.6432 156.714 57.2192L155.897 56.2952C156.605 55.4432 157.734 55.0099 158.85 55.0099C160.4 55.0099 161.756 55.8872 161.756 57.4832C161.756 58.9592 160.4 60.2805 158.252 61.9005H161.804V63.1365H156.006V62.0325Z" fill="#292F7B"/>
<path d="M163.23 64.265C163.613 64.037 164.009 63.545 164.093 63.137C164.058 63.149 163.962 63.173 163.889 63.173C163.481 63.173 163.17 62.861 163.17 62.417C163.17 61.9596 163.541 61.589 163.985 61.589C164.478 61.589 164.924 61.985 164.924 62.681C164.924 63.509 164.454 64.265 163.794 64.733L163.23 64.265Z" fill="#292F7B"/>
<path d="M170.873 56.9551L169.565 58.3111L168.748 57.4591L171.053 55.1297H172.277V63.1364H170.873V56.9551Z" fill="#292F7B"/>
<path d="M175.433 56.9551L174.125 58.3111L173.308 57.4591L175.613 55.1297H176.837V63.1364H175.433V56.9551Z" fill="#292F7B"/>
<path d="M177.892 55.5025L178.673 54.9145C179.813 56.3065 180.497 58.2865 180.497 60.2199C180.497 62.1519 179.813 64.1452 178.673 65.5252L177.892 64.9252C178.697 63.4479 179.129 62.1039 179.129 60.2199C179.129 58.3359 178.697 56.9905 177.892 55.5025Z" fill="#292F7B"/>
<path d="M68.203 76.4329C71.311 74.0796 72.5243 73.0356 72.5243 71.8836C72.5243 71.0436 71.803 70.6583 71.071 70.6583C70.135 70.6583 69.415 71.0436 68.911 71.6196L68.095 70.6956C68.803 69.8436 69.931 69.4103 71.0483 69.4103C72.5963 69.4103 73.9523 70.2876 73.9523 71.8836C73.9523 73.3596 72.5963 74.6809 70.4483 76.3009H74.0016V77.5369H68.203V76.4329Z" fill="#292F7B"/>
<path d="M77.048 71.3555L75.7387 72.7115L74.9227 71.8595L77.228 69.5301H78.452V77.5368H77.048V71.3555Z" fill="#292F7B"/>
<path d="M81.6079 71.3555L80.2985 72.7115L79.4825 71.8595L81.7879 69.5301H83.0119V77.5368H81.6079V71.3555Z" fill="#292F7B"/>
<path d="M87.4387 70.6588C86.564 70.6588 85.9147 71.0548 85.9147 71.7268C85.9147 72.4841 86.9467 72.7708 87.4387 72.8548C87.9307 72.7708 88.952 72.4841 88.952 71.7268C88.952 71.0548 88.292 70.6588 87.4387 70.6588ZM87.4387 74.0441C86.936 74.1041 85.7827 74.4761 85.7827 75.3041C85.7827 76.0001 86.5267 76.4335 87.4387 76.4335C88.328 76.4335 89.084 76.0001 89.084 75.3041C89.084 74.4761 87.9307 74.1041 87.4387 74.0441ZM86.168 73.4081C85.2667 73.1201 84.4987 72.5321 84.4987 71.5108C84.4987 70.0348 86.012 69.4108 87.4387 69.4108C88.8454 69.4108 90.3814 70.0348 90.3814 71.5108C90.3814 72.5321 89.6 73.1201 88.6987 73.4081C89.6734 73.7321 90.5014 74.4641 90.5014 75.4841C90.5014 76.9121 89.072 77.6815 87.4387 77.6815C85.796 77.6815 84.3654 76.9255 84.3654 75.4841C84.3654 74.4641 85.1947 73.7321 86.168 73.4081Z" fill="#292F7B"/>
<path d="M94.578 73.5398C94.578 71.0798 96.4153 69.3984 98.7193 69.3984C100.399 69.3984 101.395 70.2384 101.995 71.1998L100.795 71.8118C100.413 71.1504 99.6447 70.6478 98.7193 70.6478C97.194 70.6478 96.018 71.8598 96.018 73.5398C96.018 75.2211 97.194 76.4331 98.7193 76.4331C99.6447 76.4331 100.413 75.9411 100.795 75.2678L101.995 75.8811C101.383 76.8411 100.399 77.6811 98.7193 77.6811C96.4153 77.6811 94.578 76.0011 94.578 73.5398Z" fill="#292F7B"/>
<path d="M71.7797 118.419H69.8597V120.965H71.7797C72.5717 120.965 73.1477 120.459 73.1477 119.691C73.1477 118.923 72.5717 118.419 71.7797 118.419ZM71.2517 122.201H69.8597V125.189H68.4544V117.183H71.9731C73.5557 117.183 74.5891 118.215 74.5891 119.691C74.5891 121.121 73.6517 121.89 72.6931 122.045L74.6491 125.189H73.0291L71.2517 122.201Z" fill="#00ADEF"/>
<path d="M79.8319 117.051C81.3919 117.051 82.4132 117.796 83.0612 118.72L81.9092 119.368C81.4879 118.767 80.7332 118.3 79.8319 118.3C78.2479 118.3 77.0719 119.512 77.0719 121.191C77.0719 122.873 78.2479 124.097 79.8319 124.097C80.6479 124.097 81.3679 123.712 81.7279 123.376V122.129H79.3399V120.892H83.1332V123.893C82.3412 124.769 81.2252 125.345 79.8319 125.345C77.5159 125.345 75.6319 123.701 75.6319 121.191C75.6319 118.684 77.5159 117.051 79.8319 117.051Z" fill="#00ADEF"/>
<path d="M88.3032 123.953C89.0712 123.953 89.5285 123.533 89.5285 122.837C89.5285 122.236 89.1085 121.733 88.3032 121.733H85.9979V123.953H88.3032ZM88.2432 120.496C88.9645 120.496 89.3725 120.064 89.3725 119.464C89.3725 118.864 88.9645 118.42 88.2432 118.42H85.9979V120.496H88.2432ZM84.5952 117.184H88.5325C89.9965 117.184 90.8139 118.094 90.8139 119.224C90.8139 120.232 90.1645 120.905 89.4205 121.061C90.2725 121.192 90.9685 122.044 90.9685 123.029C90.9685 124.264 90.1405 125.189 88.6405 125.189H84.5952V117.184Z" fill="#00ADEF"/>
<path d="M95.1053 122.272C95.1053 120.34 95.7907 118.359 96.9173 116.967L97.6987 117.556C96.908 119.043 96.4747 120.388 96.4747 122.272C96.4747 124.157 96.908 125.501 97.6987 126.977L96.9173 127.577C95.7907 126.197 95.1053 124.204 95.1053 122.272Z" fill="#00ADEF"/>
<path d="M101.611 118.311C100.304 118.311 99.8346 119.669 99.8346 121.191C99.8346 122.718 100.304 124.085 101.611 124.085C102.919 124.085 103.388 122.718 103.388 121.191C103.388 119.669 102.919 118.311 101.611 118.311ZM101.611 117.063C103.856 117.063 104.816 119.175 104.816 121.191C104.816 123.21 103.856 125.334 101.611 125.334C99.3652 125.334 98.4066 123.21 98.4066 121.191C98.4066 119.175 99.3652 117.063 101.611 117.063Z" fill="#00ADEF"/>
<path d="M105.691 126.318C106.074 126.09 106.47 125.598 106.554 125.188C106.519 125.202 106.423 125.226 106.35 125.226C105.942 125.226 105.631 124.912 105.631 124.47C105.631 124.012 106.002 123.642 106.446 123.642C106.939 123.642 107.384 124.038 107.384 124.734C107.384 125.562 106.915 126.318 106.255 126.786L105.691 126.318Z" fill="#00ADEF"/>
<path d="M113.334 119.008L112.026 120.364L111.209 119.512L113.514 117.184H114.738V125.189H113.334V119.008Z" fill="#00ADEF"/>
<path d="M120.066 118.419H115.914V117.183H121.688V118.155L118.58 125.189H117.042L120.066 118.419Z" fill="#00ADEF"/>
<path d="M123.691 122.141H126.126V118.445L123.691 122.141ZM126.126 123.377H122.31V122.249L125.599 117.183H127.533V122.141H128.601V123.377H127.533V125.189H126.126V123.377Z" fill="#00ADEF"/>
<path d="M129.618 126.318C130.001 126.09 130.397 125.598 130.481 125.188C130.446 125.202 130.35 125.226 130.277 125.226C129.869 125.226 129.558 124.912 129.558 124.47C129.558 124.012 129.929 123.642 130.373 123.642C130.866 123.642 131.312 124.038 131.312 124.734C131.312 125.562 130.842 126.318 130.182 126.786L129.618 126.318Z" fill="#00ADEF"/>
<path d="M135.558 124.085C138.666 121.733 139.878 120.689 139.878 119.535C139.878 118.695 139.158 118.311 138.425 118.311C137.49 118.311 136.769 118.695 136.266 119.273L135.449 118.347C136.157 117.497 137.286 117.063 138.402 117.063C139.952 117.063 141.308 117.939 141.308 119.535C141.308 121.011 139.952 122.333 137.804 123.953H141.356V125.189H135.558V124.085Z" fill="#00ADEF"/>
<path d="M143.142 123.113C143.658 123.712 144.51 124.085 145.363 124.085C146.419 124.085 147.031 123.605 147.031 122.861C147.031 122.069 146.394 121.733 145.254 121.733C144.918 121.733 144.45 121.733 144.33 121.744V120.482C144.475 120.496 144.943 120.496 145.254 120.496C146.191 120.496 146.899 120.172 146.899 119.438C146.899 118.696 146.178 118.31 145.279 118.31C144.462 118.31 143.79 118.624 143.215 119.198L142.494 118.324C143.106 117.602 144.078 117.064 145.41 117.064C147.139 117.064 148.303 117.878 148.303 119.224C148.303 120.293 147.392 120.916 146.563 121.061C147.342 121.132 148.423 121.768 148.423 123.004C148.423 124.361 147.259 125.333 145.41 125.333C143.983 125.333 142.926 124.756 142.386 124.037L143.142 123.113Z" fill="#00ADEF"/>
<path d="M152.467 118.299C151.423 118.299 150.871 119.055 150.871 119.691C150.871 120.675 151.639 121.121 152.502 121.121C153.186 121.121 153.859 120.761 154.255 120.183C154.183 119.319 153.703 118.299 152.467 118.299ZM150.522 123.377C150.941 123.809 151.41 124.073 152.166 124.073C153.618 124.073 154.279 122.753 154.279 121.443V121.205C153.907 121.743 153.066 122.331 152.131 122.331C150.69 122.331 149.441 121.443 149.441 119.739C149.441 118.265 150.606 117.05 152.394 117.05C154.747 117.05 155.697 118.959 155.697 121.191C155.697 123.495 154.483 125.322 152.166 125.322C151.182 125.322 150.414 124.973 149.874 124.434L150.522 123.377Z" fill="#00ADEF"/>
<path d="M156.401 117.556L157.181 116.968C158.321 118.36 159.006 120.34 159.006 122.272C159.006 124.204 158.321 126.197 157.181 127.579L156.401 126.977C157.206 125.501 157.638 124.157 157.638 122.272C157.638 120.388 157.206 119.043 156.401 117.556Z" fill="#00ADEF"/>
<path d="M68.0949 135.592C68.0949 133.131 69.9309 131.451 72.2349 131.451C73.9162 131.451 74.9122 132.29 75.5122 133.251L74.3136 133.863C73.9282 133.203 73.1602 132.699 72.2349 132.699C70.7122 132.699 69.5349 133.911 69.5349 135.592C69.5349 137.272 70.7122 138.486 72.2349 138.486C73.1602 138.486 73.9282 137.994 74.3136 137.32L75.5122 137.934C74.9002 138.894 73.9162 139.732 72.2349 139.732C69.9309 139.732 68.0949 138.054 68.0949 135.592Z" fill="#00ADEF"/>
<path d="M83.5532 133.527L81.0919 139.59H80.4919L78.0425 133.527V139.59H76.6385V131.582H78.6185L80.7919 136.973L82.9759 131.582H84.9572V139.59H83.5532V133.527Z" fill="#00ADEF"/>
<path d="M88.9282 136.264L85.8189 131.582H87.4269L89.6362 135.015L91.8202 131.582H93.4282L90.3322 136.264V139.59H88.9282V136.264Z" fill="#00ADEF"/>
<path d="M96.4035 136.216L95.7075 137.032V139.589H94.3035V131.581H95.7075V135.4L98.8395 131.581H100.581L97.3261 135.363L100.821 139.589H99.0928L96.4035 136.216Z" fill="#00ADEF"/>
<path d="M104.491 136.673C104.491 134.74 105.175 132.759 106.303 131.367L107.083 131.955C106.291 133.444 105.857 134.788 105.857 136.673C105.857 138.556 106.291 139.901 107.083 141.377L106.303 141.979C105.175 140.597 104.491 138.605 104.491 136.673Z" fill="#00ADEF"/>
<path d="M109.603 133.408L108.295 134.765L107.477 133.912L109.783 131.582H111.007V139.59H109.603V133.408Z" fill="#00ADEF"/>
<path d="M115.556 132.711C114.247 132.711 113.779 134.068 113.779 135.592C113.779 137.116 114.247 138.486 115.556 138.486C116.863 138.486 117.332 137.116 117.332 135.592C117.332 134.068 116.863 132.711 115.556 132.711ZM115.556 131.462C117.801 131.462 118.76 133.575 118.76 135.592C118.76 137.608 117.801 139.734 115.556 139.734C113.311 139.734 112.351 137.608 112.351 135.592C112.351 133.575 113.311 131.462 115.556 131.462Z" fill="#00ADEF"/>
<path d="M122.946 132.711C121.64 132.711 121.17 134.068 121.17 135.592C121.17 137.116 121.64 138.486 122.946 138.486C124.254 138.486 124.724 137.116 124.724 135.592C124.724 134.068 124.254 132.711 122.946 132.711ZM122.946 131.462C125.192 131.462 126.152 133.575 126.152 135.592C126.152 137.608 125.192 139.734 122.946 139.734C120.701 139.734 119.742 137.608 119.742 135.592C119.742 133.575 120.701 131.462 122.946 131.462Z" fill="#00ADEF"/>
<path d="M127.026 140.717C127.41 140.489 127.806 139.997 127.889 139.589C127.854 139.6 127.759 139.625 127.686 139.625C127.277 139.625 126.966 139.313 126.966 138.868C126.966 138.412 127.337 138.04 127.782 138.04C128.275 138.04 128.719 138.436 128.719 139.133C128.719 139.963 128.251 140.717 127.59 141.187L127.026 140.717Z" fill="#00ADEF"/>
<path d="M136.064 132.711C134.754 132.711 134.286 134.068 134.286 135.592C134.286 137.116 134.754 138.486 136.064 138.486C137.37 138.486 137.84 137.116 137.84 135.592C137.84 134.068 137.37 132.711 136.064 132.711ZM136.064 131.462C138.309 131.462 139.268 133.575 139.268 135.592C139.268 137.608 138.309 139.734 136.064 139.734C133.818 139.734 132.858 137.608 132.858 135.592C132.858 133.575 133.818 131.462 136.064 131.462Z" fill="#00ADEF"/>
<path d="M140.142 140.717C140.526 140.489 140.922 139.997 141.006 139.589C140.97 139.6 140.874 139.625 140.802 139.625C140.394 139.625 140.082 139.313 140.082 138.868C140.082 138.412 140.454 138.04 140.898 138.04C141.39 138.04 141.835 138.436 141.835 139.133C141.835 139.963 141.366 140.717 140.706 141.187L140.142 140.717Z" fill="#00ADEF"/>
<path d="M149.178 132.711C147.872 132.711 147.402 134.068 147.402 135.592C147.402 137.116 147.872 138.486 149.178 138.486C150.486 138.486 150.956 137.116 150.956 135.592C150.956 134.068 150.486 132.711 149.178 132.711ZM149.178 131.462C151.424 131.462 152.384 133.575 152.384 135.592C152.384 137.608 151.424 139.734 149.178 139.734C146.933 139.734 145.974 137.608 145.974 135.592C145.974 133.575 146.933 131.462 149.178 131.462Z" fill="#00ADEF"/>
<path d="M153.258 140.717C153.642 140.489 154.038 139.997 154.12 139.589C154.086 139.6 153.991 139.625 153.918 139.625C153.508 139.625 153.198 139.313 153.198 138.868C153.198 138.412 153.568 138.04 154.014 138.04C154.507 138.04 154.951 138.436 154.951 139.133C154.951 139.963 154.483 140.717 153.822 141.187L153.258 140.717Z" fill="#00ADEF"/>
<path d="M162.295 132.711C160.986 132.711 160.518 134.068 160.518 135.592C160.518 137.116 160.986 138.486 162.295 138.486C163.602 138.486 164.071 137.116 164.071 135.592C164.071 134.068 163.602 132.711 162.295 132.711ZM162.295 131.462C164.541 131.462 165.499 133.575 165.499 135.592C165.499 137.608 164.541 139.734 162.295 139.734C160.05 139.734 159.09 137.608 159.09 135.592C159.09 133.575 160.05 131.462 162.295 131.462Z" fill="#00ADEF"/>
<path d="M166.194 131.954L166.974 131.366C168.113 132.76 168.798 134.74 168.798 136.673C168.798 138.605 168.113 140.597 166.974 141.978L166.194 141.377C166.999 139.901 167.43 138.556 167.43 136.673C167.43 134.788 166.999 133.444 166.194 131.954Z" fill="#00ADEF"/>
<path d="M68.6469 151.913C69.1629 152.513 70.0149 152.885 70.8683 152.885C71.9243 152.885 72.5363 152.405 72.5363 151.661C72.5363 150.869 71.8989 150.533 70.7589 150.533C70.4229 150.533 69.9549 150.533 69.8349 150.545V149.285C69.9803 149.295 70.4483 149.295 70.7589 149.295C71.6963 149.295 72.4043 148.973 72.4043 148.239C72.4043 147.495 71.6829 147.11 70.7843 147.11C69.9669 147.11 69.2949 147.423 68.7203 147.999L67.9989 147.123C68.6109 146.402 69.5829 145.863 70.9149 145.863C72.6443 145.863 73.8083 146.679 73.8083 148.025C73.8083 149.093 72.8976 149.717 72.0683 149.861C72.8469 149.933 73.9283 150.569 73.9283 151.805C73.9283 153.162 72.7643 154.134 70.9149 154.134C69.4883 154.134 68.4309 153.557 67.8909 152.837L68.6469 151.913Z" fill="#00ADEF"/>
<path d="M78.1887 147.111C76.8793 147.111 76.4113 148.468 76.4113 149.992C76.4113 151.517 76.8793 152.885 78.1887 152.885C79.4953 152.885 79.9647 151.517 79.9647 149.992C79.9647 148.468 79.4953 147.111 78.1887 147.111ZM78.1887 145.863C80.434 145.863 81.3927 147.975 81.3927 149.992C81.3927 152.009 80.434 154.135 78.1887 154.135C75.9433 154.135 74.9833 152.009 74.9833 149.992C74.9833 147.975 75.9433 145.863 78.1887 145.863Z" fill="#00ADEF"/>
<path d="M85.5677 150.064C84.8837 150.064 84.2223 150.436 83.8157 151.012C83.8997 151.876 84.369 152.885 85.6037 152.885C86.6597 152.885 87.2117 152.142 87.2117 151.493C87.2117 150.509 86.4437 150.064 85.5677 150.064ZM85.905 145.864C86.8997 145.864 87.6677 146.222 88.209 146.752L87.5477 147.818C87.129 147.376 86.673 147.11 85.905 147.11C84.5717 147.11 83.7917 148.348 83.7917 149.753C83.7917 149.837 83.7917 149.908 83.8037 149.981C84.1623 149.44 85.0037 148.864 85.9517 148.864C87.3917 148.864 88.629 149.741 88.629 151.444C88.629 152.933 87.465 154.134 85.6757 154.134C83.3223 154.134 82.3743 152.225 82.3743 150.004C82.3743 147.688 83.5877 145.864 85.905 145.864Z" fill="#00ADEF"/>
<path d="M92.6704 149.992C92.6704 147.532 94.5064 145.851 96.8104 145.851C98.4917 145.851 99.4877 146.691 100.088 147.652L98.8891 148.264C98.5037 147.603 97.7357 147.1 96.8104 147.1C95.2877 147.1 94.1104 148.311 94.1104 149.992C94.1104 151.673 95.2877 152.885 96.8104 152.885C97.7357 152.885 98.5037 152.393 98.8891 151.72L100.088 152.333C99.4757 153.293 98.4917 154.133 96.8104 154.133C94.5064 154.133 92.6704 152.453 92.6704 149.992Z" fill="#00ADEF"/>
<path d="M71.7797 194.871H69.8597V197.416H71.7797C72.5717 197.416 73.1477 196.912 73.1477 196.144C73.1477 195.376 72.5717 194.871 71.7797 194.871ZM71.2517 198.652H69.8597V201.642H68.4544V193.635H71.9731C73.5557 193.635 74.5891 194.668 74.5891 196.144C74.5891 197.572 73.6517 198.342 72.6931 198.496L74.6491 201.642H73.0291L71.2517 198.652Z" fill="#60C560"/>
<path d="M79.8319 193.503C81.3919 193.503 82.4132 194.248 83.0612 195.172L81.9092 195.82C81.4879 195.22 80.7332 194.752 79.8319 194.752C78.2479 194.752 77.0719 195.964 77.0719 197.644C77.0719 199.325 78.2479 200.549 79.8319 200.549C80.6479 200.549 81.3679 200.165 81.7279 199.829V198.581H79.3399V197.344H83.1332V200.345C82.3412 201.221 81.2252 201.799 79.8319 201.799C77.5159 201.799 75.6319 200.153 75.6319 197.644C75.6319 195.136 77.5159 193.503 79.8319 193.503Z" fill="#60C560"/>
<path d="M88.3032 200.405C89.0712 200.405 89.5285 199.986 89.5285 199.289C89.5285 198.689 89.1085 198.185 88.3032 198.185H85.9979V200.405H88.3032ZM88.2432 196.948C88.9645 196.948 89.3725 196.516 89.3725 195.916C89.3725 195.316 88.9645 194.872 88.2432 194.872H85.9979V196.948H88.2432ZM84.5952 193.636H88.5325C89.9965 193.636 90.8139 194.546 90.8139 195.676C90.8139 196.684 90.1645 197.357 89.4205 197.513C90.2725 197.645 90.9685 198.496 90.9685 199.481C90.9685 200.717 90.1405 201.642 88.6405 201.642H84.5952V193.636Z" fill="#60C560"/>
<path d="M95.1053 198.725C95.1053 196.792 95.7907 194.811 96.9173 193.42L97.6987 194.008C96.908 195.496 96.4747 196.84 96.4747 198.725C96.4747 200.609 96.908 201.953 97.6987 203.429L96.9173 204.031C95.7907 202.649 95.1053 200.657 95.1053 198.725Z" fill="#60C560"/>
<path d="M100.219 195.46L98.9105 196.817L98.0945 195.964L100.4 193.636H101.624V201.642H100.219V195.46Z" fill="#60C560"/>
<path d="M106.17 194.763C104.864 194.763 104.394 196.12 104.394 197.644C104.394 199.17 104.864 200.538 106.17 200.538C107.478 200.538 107.948 199.17 107.948 197.644C107.948 196.12 107.478 194.763 106.17 194.763ZM106.17 193.515C108.416 193.515 109.376 195.627 109.376 197.644C109.376 199.662 108.416 201.786 106.17 201.786C103.925 201.786 102.966 199.662 102.966 197.644C102.966 195.627 103.925 193.515 106.17 193.515Z" fill="#60C560"/>
<path d="M112.17 195.46L110.862 196.817L110.045 195.964L112.35 193.636H113.574V201.642H112.17V195.46Z" fill="#60C560"/>
<path d="M115.111 202.769C115.493 202.541 115.889 202.049 115.973 201.641C115.939 201.653 115.843 201.677 115.769 201.677C115.361 201.677 115.051 201.365 115.051 200.921C115.051 200.464 115.421 200.093 115.865 200.093C116.359 200.093 116.804 200.489 116.804 201.185C116.804 202.015 116.335 202.769 115.675 203.239L115.111 202.769Z" fill="#60C560"/>
<path d="M122.754 195.46L121.447 196.817L120.63 195.964L122.935 193.636H124.159V201.642H122.754V195.46Z" fill="#60C560"/>
<path d="M128.491 194.751C127.447 194.751 126.895 195.507 126.895 196.145C126.895 197.129 127.663 197.573 128.527 197.573C129.211 197.573 129.884 197.213 130.28 196.637C130.207 195.773 129.728 194.751 128.491 194.751ZM126.545 199.83C126.965 200.262 127.433 200.525 128.191 200.525C129.643 200.525 130.303 199.205 130.303 197.897V197.657C129.931 198.197 129.091 198.785 128.155 198.785C126.715 198.785 125.465 197.897 125.465 196.191C125.465 194.717 126.629 193.502 128.417 193.502C130.772 193.502 131.72 195.411 131.72 197.645C131.72 199.949 130.507 201.774 128.191 201.774C127.207 201.774 126.439 201.426 125.897 200.886L126.545 199.83Z" fill="#60C560"/>
<path d="M135.919 194.763C134.611 194.763 134.142 196.12 134.142 197.644C134.142 199.17 134.611 200.538 135.919 200.538C137.227 200.538 137.695 199.17 137.695 197.644C137.695 196.12 137.227 194.763 135.919 194.763ZM135.919 193.515C138.164 193.515 139.123 195.627 139.123 197.644C139.123 199.662 138.164 201.786 135.919 201.786C133.674 201.786 132.715 199.662 132.715 197.644C132.715 195.627 133.674 193.515 135.919 193.515Z" fill="#60C560"/>
<path d="M139.999 202.769C140.381 202.541 140.777 202.049 140.861 201.641C140.827 201.653 140.731 201.677 140.657 201.677C140.249 201.677 139.939 201.365 139.939 200.921C139.939 200.464 140.309 200.093 140.753 200.093C141.247 200.093 141.692 200.489 141.692 201.185C141.692 202.015 141.223 202.769 140.563 203.239L139.999 202.769Z" fill="#60C560"/>
<path d="M147.642 195.46L146.334 196.817L145.516 195.964L147.822 193.636H149.046V201.642H147.642V195.46Z" fill="#60C560"/>
<path d="M152.202 195.46L150.894 196.817L150.076 195.964L152.382 193.636H153.606V201.642H152.202V195.46Z" fill="#60C560"/>
<path d="M156.762 195.46L155.454 196.817L154.636 195.964L156.942 193.636H158.166V201.642H156.762V195.46Z" fill="#60C560"/>
<path d="M159.22 194.008L160.001 193.42C161.141 194.812 161.825 196.792 161.825 198.725C161.825 200.657 161.141 202.649 160.001 204.03L159.22 203.429C160.025 201.953 160.457 200.609 160.457 198.725C160.457 196.84 160.025 195.496 159.22 194.008Z" fill="#60C560"/>
<path d="M68.0949 212.044C68.0949 209.583 69.9309 207.903 72.2349 207.903C73.9162 207.903 74.9122 208.743 75.5122 209.703L74.3136 210.315C73.9282 209.655 73.1602 209.151 72.2349 209.151C70.7122 209.151 69.5349 210.363 69.5349 212.044C69.5349 213.726 70.7122 214.938 72.2349 214.938C73.1602 214.938 73.9282 214.446 74.3136 213.772L75.5122 214.386C74.9002 215.346 73.9162 216.184 72.2349 216.184C69.9309 216.184 68.0949 214.506 68.0949 212.044Z" fill="#60C560"/>
<path d="M83.5532 209.979L81.0919 216.042H80.4919L78.0425 209.979V216.042H76.6385V208.035H78.6185L80.7919 213.425L82.9759 208.035H84.9572V216.042H83.5532V209.979Z" fill="#60C560"/>
<path d="M88.9282 212.716L85.8189 208.035H87.4269L89.6362 211.467L91.8202 208.035H93.4282L90.3322 212.716V216.041H88.9282V212.716Z" fill="#60C560"/>
<path d="M96.4035 212.668L95.7075 213.484V216.041H94.3035V208.035H95.7075V211.852L98.8395 208.035H100.581L97.3261 211.816L100.821 216.041H99.0928L96.4035 212.668Z" fill="#60C560"/>
<path d="M104.491 213.125C104.491 211.192 105.175 209.21 106.303 207.82L107.083 208.408C106.291 209.896 105.857 211.24 105.857 213.125C105.857 215.009 106.291 216.353 107.083 217.829L106.303 218.43C105.175 217.049 104.491 215.057 104.491 213.125Z" fill="#60C560"/>
<path d="M110.983 212.116C110.298 212.116 109.639 212.488 109.231 213.065C109.315 213.928 109.783 214.937 111.019 214.937C112.075 214.937 112.627 214.193 112.627 213.544C112.627 212.56 111.859 212.116 110.983 212.116ZM111.319 207.916C112.316 207.916 113.084 208.275 113.623 208.804L112.963 209.871C112.543 209.427 112.087 209.163 111.319 209.163C109.987 209.163 109.207 210.4 109.207 211.805C109.207 211.888 109.207 211.96 109.219 212.033C109.579 211.492 110.419 210.916 111.367 210.916C112.808 210.916 114.044 211.792 114.044 213.496C114.044 214.985 112.879 216.185 111.091 216.185C108.738 216.185 107.79 214.277 107.79 212.056C107.79 209.74 109.003 207.916 111.319 207.916Z" fill="#60C560"/>
<path d="M115.111 214.938C118.22 212.584 119.431 211.54 119.431 210.388C119.431 209.547 118.712 209.163 117.979 209.163C117.043 209.163 116.323 209.547 115.819 210.124L115.003 209.199C115.711 208.348 116.84 207.915 117.956 207.915C119.504 207.915 120.86 208.792 120.86 210.388C120.86 211.864 119.504 213.186 117.356 214.804H120.908V216.042H115.111V214.938Z" fill="#60C560"/>
<path d="M122.334 217.169C122.717 216.941 123.113 216.449 123.197 216.041C123.162 216.053 123.066 216.077 122.993 216.077C122.585 216.077 122.274 215.765 122.274 215.321C122.274 214.864 122.645 214.493 123.089 214.493C123.582 214.493 124.028 214.889 124.028 215.585C124.028 216.415 123.558 217.169 122.898 217.639L122.334 217.169Z" fill="#60C560"/>
<path d="M131.371 209.163C130.063 209.163 129.595 210.52 129.595 212.044C129.595 213.569 130.063 214.937 131.371 214.937C132.678 214.937 133.147 213.569 133.147 212.044C133.147 210.52 132.678 209.163 131.371 209.163ZM131.371 207.915C133.616 207.915 134.576 210.027 134.576 212.044C134.576 214.061 133.616 216.185 131.371 216.185C129.126 216.185 128.166 214.061 128.166 212.044C128.166 210.027 129.126 207.915 131.371 207.915Z" fill="#60C560"/>
<path d="M135.449 217.169C135.834 216.941 136.23 216.449 136.313 216.041C136.277 216.053 136.182 216.077 136.11 216.077C135.701 216.077 135.389 215.765 135.389 215.321C135.389 214.864 135.761 214.493 136.205 214.493C136.698 214.493 137.142 214.889 137.142 215.585C137.142 216.415 136.674 217.169 136.014 217.639L135.449 217.169Z" fill="#60C560"/>
<path d="M145.267 209.271H141.114V208.035H146.887V209.008L143.779 216.042H142.242L145.267 209.271Z" fill="#60C560"/>
<path d="M150.858 212.116C150.174 212.116 149.514 212.488 149.106 213.065C149.19 213.928 149.659 214.937 150.894 214.937C151.951 214.937 152.503 214.193 152.503 213.544C152.503 212.56 151.735 212.116 150.858 212.116ZM151.195 207.916C152.191 207.916 152.959 208.275 153.499 208.804L152.839 209.871C152.419 209.427 151.963 209.163 151.195 209.163C149.863 209.163 149.082 210.4 149.082 211.805C149.082 211.888 149.082 211.96 149.095 212.033C149.454 211.492 150.295 210.916 151.243 210.916C152.683 210.916 153.921 211.792 153.921 213.496C153.921 214.985 152.755 216.185 150.967 216.185C148.614 216.185 147.665 214.277 147.665 212.056C147.665 209.74 148.879 207.916 151.195 207.916Z" fill="#60C560"/>
<path d="M155.069 217.169C155.454 216.941 155.85 216.449 155.933 216.041C155.897 216.053 155.802 216.077 155.73 216.077C155.321 216.077 155.009 215.765 155.009 215.321C155.009 214.864 155.381 214.493 155.825 214.493C156.318 214.493 156.762 214.889 156.762 215.585C156.762 216.415 156.294 217.169 155.634 217.639L155.069 217.169Z" fill="#60C560"/>
<path d="M164.107 209.163C162.799 209.163 162.329 210.52 162.329 212.044C162.329 213.569 162.799 214.937 164.107 214.937C165.415 214.937 165.883 213.569 165.883 212.044C165.883 210.52 165.415 209.163 164.107 209.163ZM164.107 207.915C166.352 207.915 167.311 210.027 167.311 212.044C167.311 214.061 166.352 216.185 164.107 216.185C161.861 216.185 160.903 214.061 160.903 212.044C160.903 210.027 161.861 207.915 164.107 207.915Z" fill="#60C560"/>
<path d="M168.005 208.408L168.785 207.82C169.925 209.212 170.61 211.192 170.61 213.125C170.61 215.057 169.925 217.049 168.785 218.43L168.005 217.829C168.81 216.353 169.242 215.009 169.242 213.125C169.242 211.24 168.81 209.896 168.005 208.408Z" fill="#60C560"/>
<path d="M68.203 229.337C71.311 226.984 72.5243 225.94 72.5243 224.788C72.5243 223.948 71.803 223.564 71.071 223.564C70.135 223.564 69.415 223.948 68.911 224.524L68.095 223.6C68.803 222.748 69.931 222.314 71.0483 222.314C72.5963 222.314 73.9523 223.192 73.9523 224.788C73.9523 226.264 72.5963 227.585 70.4483 229.205H74.0016V230.441H68.203V229.337Z" fill="#60C560"/>
<path d="M76.4595 227.393H78.8955V223.696L76.4595 227.393ZM78.8955 228.629H75.0795V227.501L78.3688 222.435H80.3008V227.393H81.3688V228.629H80.3008V230.441H78.8955V228.629Z" fill="#60C560"/>
<path d="M85.3866 226.517C84.7026 226.517 84.0426 226.889 83.6346 227.465C83.7186 228.329 84.1879 229.337 85.4226 229.337C86.4799 229.337 87.0319 228.594 87.0319 227.945C87.0319 226.961 86.2639 226.517 85.3866 226.517ZM85.7239 222.316C86.7199 222.316 87.4879 222.676 88.0279 223.204L87.3679 224.272C86.9479 223.828 86.4919 223.564 85.7239 223.564C84.3919 223.564 83.6106 224.8 83.6106 226.205C83.6106 226.289 83.6106 226.361 83.6239 226.433C83.9826 225.892 84.8239 225.317 85.7719 225.317C87.2119 225.317 88.4492 226.193 88.4492 227.897C88.4492 229.385 87.2839 230.586 85.4959 230.586C83.1426 230.586 82.1932 228.677 82.1932 226.457C82.1932 224.14 83.4079 222.316 85.7239 222.316Z" fill="#60C560"/>
<path d="M90.6313 227.393H93.0673V223.696L90.6313 227.393ZM93.0673 228.629H89.2513V227.501L92.5407 222.435H94.4727V227.393H95.5407V228.629H94.4727V230.441H93.0673V228.629Z" fill="#60C560"/>
<path d="M99.4504 226.444C99.4504 223.984 101.288 222.304 103.592 222.304C105.272 222.304 106.268 223.143 106.868 224.104L105.668 224.716C105.285 224.056 104.517 223.552 103.592 223.552C102.066 223.552 100.89 224.764 100.89 226.444C100.89 228.125 102.066 229.337 103.592 229.337C104.517 229.337 105.285 228.845 105.668 228.173L106.868 228.785C106.256 229.747 105.272 230.585 103.592 230.585C101.288 230.585 99.4504 228.905 99.4504 226.444Z" fill="#60C560"/>
<path d="M56.3813 61.3548C56.3813 76.9241 43.76 89.5455 28.1907 89.5455C12.6213 89.5455 0 76.9241 0 61.3548C0 45.7855 12.6213 33.1641 28.1907 33.1641C43.76 33.1641 56.3813 45.7855 56.3813 61.3548Z" fill="#292F7B"/>
<path d="M5.64169 60.4101L4.84969 62.7995H6.16969L6.96169 60.4101H5.64169ZM5.96569 63.4355H4.63369L3.91236 65.6075H3.16969L3.90169 63.4355H2.62836L2.83369 62.7995H4.11769L4.90969 60.4101H3.61369L3.80569 59.7861H5.12569L5.84569 57.6021H6.58969L5.87102 59.7861H7.19102L7.90969 57.6021H8.64302L7.90969 59.7861H9.19502L9.01369 60.4101H7.70702L6.90169 62.7995H8.23502L8.04302 63.4355H6.68569L5.96569 65.6075H5.23369L5.96569 63.4355Z" fill="white"/>
<path d="M10.0936 64.8151C12.9749 62.5471 14.5349 61.2151 14.5349 59.8351C14.5349 58.8138 13.6936 58.3698 12.8656 58.3698C11.9056 58.3698 11.1629 58.7778 10.6936 59.3778L10.0816 58.7418C10.6936 57.9378 11.7376 57.4818 12.8656 57.4818C14.1989 57.4818 15.5563 58.2365 15.5563 59.8351C15.5563 61.4658 13.8989 62.9538 11.6656 64.7205H15.5909V65.6085H10.0936V64.8151Z" fill="white"/>
<path d="M18.7094 62.9426H22.1788L20.4508 58.4893L18.7094 62.9426ZM22.4788 63.8306H18.4214L17.7134 65.608H16.6094L19.8268 57.6013H21.0628L24.2921 65.608H23.1868L22.4788 63.8306Z" fill="white"/>
<path d="M25.0453 64.8151C27.9253 62.5471 29.4853 61.2151 29.4853 59.8351C29.4853 58.8138 28.6466 58.3698 27.8186 58.3698C26.8573 58.3698 26.1133 58.7778 25.644 59.3778L25.032 58.7418C25.644 57.9378 26.6893 57.4818 27.8186 57.4818C29.1493 57.4818 30.5066 58.2365 30.5066 59.8351C30.5066 61.4658 28.8506 62.9538 26.6186 64.7205H30.5426V65.6085H25.0453V64.8151Z" fill="white"/>
<path d="M32.3892 57.6016H37.6346V58.4896H33.3852V61.0709H37.5506V61.9589H33.3852V64.7203H37.6346V65.6083H32.3892V57.6016Z" fill="white"/>
<path d="M42.962 58.4896H38.6526V57.6016H44.114V58.2856L40.8366 65.6083H39.7326L42.962 58.4896Z" fill="white"/>
<path d="M48.8422 64.72C49.7782 64.72 50.3302 64.192 50.3302 63.3386C50.3302 62.6066 49.8262 61.9586 48.8422 61.9586H46.3929V64.72H48.8422ZM48.7942 61.0706C49.6942 61.0706 50.1742 60.5186 50.1742 59.7866C50.1742 59.0666 49.6942 58.4893 48.7942 58.4893H46.3929V61.0706H48.7942ZM45.3969 57.6013H48.9622C50.3556 57.6013 51.2062 58.4413 51.2062 59.6413C51.2062 60.6493 50.5356 61.3226 49.8036 61.4786C50.6542 61.6106 51.3636 62.4866 51.3636 63.4466C51.3636 64.732 50.5116 65.608 49.0449 65.608H45.3969V57.6013Z" fill="white"/>
<path d="M56.3813 137.807C56.3813 153.377 43.76 165.999 28.1907 165.999C12.6213 165.999 0 153.377 0 137.807C0 122.238 12.6213 109.615 28.1907 109.615C43.76 109.615 56.3813 122.238 56.3813 137.807Z" fill="#00ADEF"/>
<path d="M5.50375 136.863L4.71175 139.251H6.03175L6.82375 136.863H5.50375ZM5.82775 139.889H4.49575L3.77442 142.059H3.03175L3.76375 139.889H2.49042L2.69575 139.251H3.97975L4.77175 136.863H3.47575L3.66775 136.238H4.98775L5.70775 134.054H6.45175L5.73308 136.238H7.05308L7.77175 134.054H8.50508L7.77175 136.238H9.05708L8.87575 136.863H7.56908L6.76375 139.251H8.09708L7.90508 139.889H6.54775L5.82775 142.059H5.09575L5.82775 139.889Z" fill="white"/>
<path d="M12.9803 134.822C11.4549 134.822 10.9389 136.466 10.9389 138.063C10.9389 139.659 11.4549 141.316 12.9803 141.316C14.5043 141.316 15.0203 139.659 15.0203 138.063C15.0203 136.466 14.5043 134.822 12.9803 134.822ZM12.9803 133.934C15.1656 133.934 16.0403 136.107 16.0403 138.063C16.0403 140.008 15.1656 142.204 12.9803 142.204C10.7843 142.204 9.91895 140.008 9.91895 138.063C9.91895 136.107 10.7843 133.934 12.9803 133.934Z" fill="white"/>
<path d="M20.324 134.822C18.7987 134.822 18.2827 136.466 18.2827 138.063C18.2827 139.659 18.7987 141.316 20.324 141.316C21.848 141.316 22.364 139.659 22.364 138.063C22.364 136.466 21.848 134.822 20.324 134.822ZM20.324 133.934C22.5094 133.934 23.384 136.107 23.384 138.063C23.384 140.008 22.5094 142.204 20.324 142.204C18.128 142.204 17.2627 140.008 17.2627 138.063C17.2627 136.107 18.128 133.934 20.324 133.934Z" fill="white"/>
<path d="M26.2043 139.396H29.6736L27.9443 134.943L26.2043 139.396ZM29.9723 140.284H25.915L25.207 142.06H24.103L27.3203 134.053H28.5563L31.7856 142.06H30.6803L29.9723 140.284Z" fill="white"/>
<path d="M32.8267 134.053H38.0733V134.943H33.824V137.524H37.988V138.412H33.824V141.172H38.0733V142.06H32.8267V134.053Z" fill="white"/>
<path d="M39.6548 134.053H44.9002V134.943H40.6508V137.524H44.8162V138.412H40.6508V141.172H44.9002V142.06H39.6548V134.053Z" fill="white"/>
<path d="M46.483 134.053H51.7283V134.943H47.479V137.524H51.6443V138.412H47.479V142.06H46.483V134.053Z" fill="white"/>
<path d="M56.3813 214.259C56.3813 229.83 43.76 242.451 28.1907 242.451C12.6213 242.451 0 229.83 0 214.259C0 198.69 12.6213 186.068 28.1907 186.068C43.76 186.068 56.3813 198.69 56.3813 214.259Z" fill="#60C560"/>
<path d="M5.8032 213.315L5.0112 215.704H6.3312L7.12453 213.315H5.8032ZM6.12853 216.34H4.7952L4.0752 218.512H3.3312L4.0632 216.34H2.7912L2.99653 215.704H4.2792L5.0712 213.315H3.7752L3.9672 212.691H5.2872L6.00853 210.507H6.75253L6.03253 212.691H7.35253L8.07253 210.507H8.80587L8.07253 212.691H9.35787L9.17653 213.315H7.86853L7.0632 215.704H8.39653L8.20453 216.34H6.8472L6.12853 218.512H5.39653L6.12853 216.34Z" fill="white"/>
<path d="M13.2564 214.348C12.4644 214.348 11.6964 214.84 11.2511 215.548C11.3471 216.544 11.8764 217.768 13.2684 217.768C14.5044 217.768 15.1057 216.844 15.1057 216.076C15.1057 214.9 14.2884 214.348 13.2564 214.348ZM13.4724 210.386C14.5044 210.386 15.2017 210.782 15.6937 211.346L15.1884 212.092C14.7817 211.61 14.3137 211.274 13.4724 211.274C11.9231 211.274 11.2164 212.848 11.2164 214.42C11.2164 214.528 11.2164 214.624 11.2284 214.732C11.5764 214.18 12.4644 213.484 13.4964 213.484C14.9364 213.484 16.1137 214.336 16.1137 216.041C16.1137 217.432 15.0577 218.656 13.3044 218.656C11.0711 218.656 10.2204 216.701 10.2204 214.528C10.2204 212.356 11.2284 210.386 13.4724 210.386Z" fill="white"/>
<path d="M18.1027 216.712C18.6307 217.384 19.328 217.768 20.312 217.768C21.4053 217.768 22.16 217.024 22.16 216.052C22.16 214.996 21.4053 214.323 20.324 214.323C19.616 214.323 19.016 214.552 18.4747 215.079L17.7427 214.828V210.507H22.6413V211.395H18.74V214.18C19.124 213.795 19.808 213.46 20.6133 213.46C21.944 213.46 23.1573 214.371 23.1573 216.016C23.1573 217.648 21.92 218.656 20.312 218.656C18.956 218.656 18.092 218.164 17.4907 217.372L18.1027 216.712Z" fill="white"/>
<path d="M28.16 217.625C29.0973 217.625 29.6493 217.097 29.6493 216.244C29.6493 215.512 29.144 214.864 28.16 214.864H25.712V217.625H28.16ZM28.1133 213.976C29.0133 213.976 29.4933 213.424 29.4933 212.692C29.4933 211.972 29.0133 211.394 28.1133 211.394H25.712V213.976H28.1133ZM24.7147 210.506H28.28C29.6733 210.506 30.524 211.346 30.524 212.546C30.524 213.554 29.8533 214.228 29.1213 214.384C29.972 214.516 30.6813 215.392 30.6813 216.352C30.6813 217.637 29.8293 218.513 28.364 218.513H24.7147V210.506Z" fill="white"/>
<path d="M32.2628 210.507H37.5095V211.395H33.2588V213.976H37.4242V214.864H33.2588V217.625H37.5095V218.513H32.2628V210.507Z" fill="white"/>
<path d="M41.8032 214.348C41.0112 214.348 40.2432 214.84 39.7992 215.548C39.8939 216.544 40.4232 217.768 41.8165 217.768C43.0525 217.768 43.6525 216.844 43.6525 216.076C43.6525 214.9 42.8365 214.348 41.8032 214.348ZM42.0192 210.386C43.0525 210.386 43.7485 210.782 44.2405 211.346L43.7352 212.092C43.3299 211.61 42.8605 211.274 42.0192 211.274C40.4712 211.274 39.7645 212.848 39.7645 214.42C39.7645 214.528 39.7645 214.624 39.7752 214.732C40.1232 214.18 41.0112 213.484 42.0445 213.484C43.4845 213.484 44.6605 214.336 44.6605 216.041C44.6605 217.432 43.6059 218.656 41.8525 218.656C39.6179 218.656 38.7672 216.701 38.7672 214.528C38.7672 212.356 39.7752 210.386 42.0192 210.386Z" fill="white"/>
<path d="M46.1835 210.507H51.4288V211.395H47.1781V213.976H51.3448V214.864H47.1781V218.513H46.1835V210.507Z" fill="white"/>
</svg>
