<svg width="769" height="798" viewBox="0 0 769 798" fill="none" xmlns="http://www.w3.org/2000/svg">
<g clip-path="url(#clip0_146_2)">
<path fill-rule="evenodd" clip-rule="evenodd" d="M176.346 488.427C170.12 486.71 163.579 485.754 156.828 485.666L151.701 392.142C151.492 388.445 152.436 387.497 155.935 387.701L177.815 390.321C181.036 389.484 181.741 388.034 182.138 384.68L226.88 169.443C251.85 152.616 279.626 139.634 309.358 131.347L176.346 488.427ZM344.852 123.863C368.292 143.366 382.547 160.621 399.031 190.695C401.138 194.293 401.391 195.853 400.66 198.049L253.688 404.624C251.977 407.536 250.748 408.58 247.462 408.052L228.478 396.863C225.356 395.27 224.111 395.759 222.817 399.228L186.717 492.107C194.02 495.306 200.732 499.603 206.644 504.789L480.789 214.837C484.459 212.288 486.335 212.089 489.288 214.411C512.293 253.913 521.319 276.794 525.645 319.835C526.18 323.97 525.803 325.505 524.272 327.241L308.296 460.011C305.583 462.024 304.044 462.506 301.226 460.736L288.119 443.021C285.867 440.336 284.53 440.299 281.983 442.988L215.06 513.417C219.546 518.797 223.315 524.796 226.217 531.269L598.522 384.366C602.926 383.61 604.71 384.224 606.403 387.577C610.529 433.103 609.024 457.654 594.728 498.482C593.463 502.454 592.472 503.685 590.35 504.61L338.48 533.504C335.17 534.18 333.572 533.965 331.767 531.169L327.389 509.572C326.485 506.186 325.289 505.587 321.844 506.945L230.337 542.877C232.03 549.232 232.933 555.908 232.933 562.796C232.933 563.842 232.912 564.884 232.871 565.92L616.659 574.392C651.12 527.234 671.461 469.104 671.461 406.223C671.461 248.643 543.716 120.898 386.135 120.898C372.115 120.898 358.331 121.91 344.852 123.863ZM511.415 662.645L336.183 611.672C332.87 611.014 331.479 610.198 330.896 606.922L335.216 585.313C335.692 581.841 334.821 580.825 331.119 580.745L231.162 579.306C229.718 585.929 227.423 592.233 224.398 598.1L412.866 690.313C447.945 687.054 481.181 677.444 511.415 662.645ZM298.098 677.708C298.125 677.589 298.155 677.467 298.188 677.343L311.18 659.544C313.07 656.593 312.705 655.305 309.379 653.678L218.005 608.414C213.553 614.474 208.238 619.86 202.24 624.389C230.127 647.92 262.587 666.2 298.098 677.708ZM186.33 609.91C159.571 583.658 137.963 552.174 123.161 517.115C132.358 510.533 143.625 506.659 155.796 506.659C186.8 506.659 211.933 531.792 211.933 562.796C211.933 582.54 201.741 599.903 186.33 609.91ZM115.547 496.98C105.989 468.47 100.81 437.951 100.81 406.223C100.81 358.93 112.317 314.324 132.683 275.053L144.801 486.437C134.203 487.949 124.299 491.616 115.547 496.98Z" fill="url(#paint0_linear_146_2)"/>
<path d="M102.306 193.613C105.514 190.99 108.971 189.552 112.675 189.298C116.325 189.008 119.941 190.034 123.524 192.374C128.596 195.687 131.213 200.228 131.376 205.997C131.521 211.676 129.126 218.291 124.193 225.842L104.64 255.774L46.7613 217.964L65.2343 189.686C69.8435 182.63 74.7229 178.11 79.8726 176.127C85.0582 174.088 89.9662 174.581 94.5965 177.605C97.4077 179.442 99.4656 181.769 100.77 184.588C102.111 187.351 102.623 190.36 102.306 193.613ZM65.545 211.241L79.1878 220.154L87.8841 206.842C90.0447 203.534 91.1043 200.648 91.0631 198.183C91.0218 195.718 89.8712 193.748 87.6111 192.271C85.3511 190.795 83.1118 190.551 80.893 191.539C78.6191 192.492 76.4019 194.622 74.2414 197.929L65.545 211.241ZM113.457 220.245C115.762 216.717 116.912 213.693 116.906 211.173C116.937 208.598 115.74 206.518 113.314 204.933C108.519 201.8 103.798 203.789 99.1532 210.9L88.9444 226.527L103.249 235.872L113.457 220.245Z" fill="white"/>
<path d="M171.181 150.978L147.772 172.938L153.442 187.932L141.485 199.149L116.658 127.646L128.183 116.835L198.028 146.106L185.783 157.593L171.181 150.978ZM159.197 145.564L133.092 133.761L143.206 160.565L159.197 145.564Z" fill="white"/>
<path d="M188.835 87.3074L169.85 98.6661L163.157 87.479L214.855 56.5468L221.549 67.7339L202.564 79.0926L231.367 127.231L217.637 135.446L188.835 87.3074Z" fill="white"/>
<path d="M298.044 83.1499L267.621 93.3812L266.539 109.375L250.999 114.601L258.169 39.2507L273.147 34.2137L324.484 89.888L308.57 95.2397L298.044 83.1499ZM289.398 73.2413L270.57 51.6478L268.616 80.23L289.398 73.2413Z" fill="white"/>
<path d="M392.704 14.5605L369.15 86.1165L353.413 87.5448L317.459 21.3899L334.672 19.8276L360.086 67.1054L376.868 15.9978L392.704 14.5605Z" fill="white"/>
<path d="M412.111 16.9677L428.063 18.1976L422.749 87.127L406.797 85.8971L412.111 16.9677Z" fill="white"/>
<path d="M487.844 84.9775L456.725 77.1095L447.157 89.971L431.263 85.9523L478.083 26.4807L493.403 30.3542L506.427 104.957L490.149 100.841L487.844 84.9775ZM485.939 71.9656L481.798 43.6175L464.682 66.5912L485.939 71.9656Z" fill="white"/>
<path d="M540.949 46.873L555.578 53.3521L527.582 116.564L512.953 110.085L540.949 46.873Z" fill="white" fill-opacity="0.73"/>
<path d="M581.187 65.9953L594.714 74.5391L564.758 121.968L594.068 140.48L587.106 151.502L544.269 124.447L581.187 65.9953Z" fill="white" fill-opacity="0.73"/>
<path d="M596.859 162.199C594.795 160.459 593.653 158.29 593.433 155.692C593.212 153.094 593.993 150.738 595.776 148.624C597.601 146.46 599.771 145.318 602.283 145.198C604.839 145.028 607.148 145.813 609.212 147.553C611.275 149.294 612.439 151.438 612.702 153.985C613.008 156.482 612.248 158.813 610.422 160.977C608.639 163.091 606.449 164.258 603.851 164.479C601.253 164.7 598.923 163.94 596.859 162.199Z" fill="white" fill-opacity="0.45"/>
<path d="M629.615 194.164C625.803 189.977 623.22 185.428 621.866 180.518C620.604 175.611 620.643 170.812 621.982 166.121C623.365 161.478 626.003 157.384 629.898 153.838C633.793 150.292 638.117 148.048 642.868 147.106C647.664 146.212 652.421 146.645 657.14 148.404C661.951 150.168 666.262 153.143 670.074 157.33C673.842 161.469 676.246 165.869 677.285 170.532C678.418 175.2 678.021 179.702 676.093 184.039L663.301 179.524C665.042 174.199 664.162 169.614 660.66 165.768C657.956 162.798 654.744 161.225 651.023 161.051C647.303 160.877 643.763 162.319 640.404 165.377C637.044 168.435 635.277 171.825 635.103 175.545C634.928 179.266 636.193 182.611 638.897 185.581C642.443 189.476 646.926 190.781 652.346 189.498L655.571 202.722C651.17 204.147 646.674 204.1 642.085 202.579C637.539 201.108 633.383 198.303 629.615 194.164Z" fill="white" fill-opacity="0.45"/>
<path d="M664.253 241.387C661.362 236.595 659.747 231.687 659.407 226.663C659.158 221.661 660.163 217.018 662.422 212.733C664.682 208.448 668.066 204.945 672.576 202.224C677.087 199.503 681.764 198.142 686.608 198.141C691.452 198.141 696 199.434 700.252 202.021C704.595 204.63 708.211 208.331 711.102 213.123C713.993 217.915 715.564 222.812 715.813 227.813C716.118 232.781 715.142 237.407 712.882 241.692C710.623 245.978 707.238 249.481 702.728 252.202C698.218 254.922 693.541 256.283 688.697 256.284C683.853 256.284 679.276 255.008 674.968 252.455C670.716 249.868 667.144 246.179 664.253 241.387ZM675.078 234.857C677.118 238.239 679.913 240.321 683.46 241.103C687.098 241.907 690.834 241.153 694.667 238.84C698.501 236.527 700.882 233.591 701.811 230.032C702.83 226.495 702.319 223.036 700.278 219.653C698.237 216.271 695.398 214.177 691.76 213.373C688.179 212.535 684.471 213.272 680.637 215.585C676.804 217.898 674.394 220.851 673.409 224.444C672.481 228.003 673.037 231.474 675.078 234.857Z" fill="white" fill-opacity="0.45"/>
<path d="M19.4834 398.998L21.1333 373.196C17.9127 373.226 15.2342 374.291 13.0979 376.392C11.0008 378.495 9.84344 381.247 9.62594 384.649C9.50344 386.564 9.72324 388.345 10.2853 389.99C10.8865 391.638 11.8142 393.091 13.0684 394.348L10.2209 396.522C8.6665 395.048 7.5255 393.248 6.79795 391.121C6.06789 389.033 5.78161 386.758 5.93911 384.295C6.14161 381.128 6.9862 378.356 8.47287 375.978C9.99614 373.642 11.9939 371.866 14.4661 370.65C16.9383 369.434 19.6795 368.923 22.6897 369.115C25.6999 369.308 28.3561 370.125 30.6583 371.568C32.958 373.05 34.6999 374.967 35.8841 377.319C37.0658 379.711 37.5654 382.333 37.3829 385.187C37.2004 388.041 36.372 390.559 34.8979 392.742C33.4237 394.924 31.453 396.584 28.9858 397.722C26.5577 398.862 23.819 399.334 20.7697 399.139L19.4834 398.998ZM33.8058 384.958C33.9958 381.987 33.198 379.424 31.4124 377.269C29.6635 375.155 27.2731 373.864 24.2413 373.395L22.8425 395.268C25.9093 395.189 28.446 394.193 30.4525 392.281C32.4955 390.409 33.6133 387.969 33.8058 384.958Z" fill="white"/>
<path d="M50.4037 440.022L6.87037 442.432L6.64956 438.442L12.7513 438.104C10.609 436.967 8.93287 435.393 7.72296 433.38C6.51522 431.407 5.8399 429.13 5.69703 426.548C5.53683 423.654 6.05672 420.996 7.25669 418.576C8.45666 416.155 10.2128 414.214 12.5251 412.752C14.8374 411.29 17.519 410.475 20.5699 410.306C23.6207 410.137 26.3759 410.652 28.8354 411.85C31.295 413.047 33.235 414.784 34.6557 417.059C36.1154 419.333 36.9254 421.916 37.0856 424.811C37.2241 427.314 36.8206 429.592 35.8749 431.646C34.9705 433.736 33.5567 435.481 31.6333 436.883L50.1731 435.856L50.4037 440.022ZM9.41273 426.696C9.5318 428.847 10.1279 430.756 11.201 432.423C12.3153 434.127 13.8187 435.417 15.7112 436.293C17.6058 437.208 19.7265 437.6 22.0733 437.471C24.4201 437.341 26.4846 436.716 28.2666 435.598C30.0508 434.518 31.3831 433.071 32.2636 431.257C33.1853 429.48 33.5866 427.515 33.4675 425.364C33.3463 423.174 32.7285 421.227 31.6141 419.523C30.541 417.856 29.0572 416.565 27.1626 415.65C25.2701 414.774 23.1505 414.401 20.8037 414.531C18.4569 414.66 16.3914 415.265 14.6071 416.345C12.8251 417.463 11.4732 418.911 10.5515 420.689C9.6711 422.503 9.2915 424.505 9.41273 426.696Z" fill="white"/>
<path d="M44.5096 483.099L14.1058 488.658L13.3872 484.727L18.9362 483.713C16.8893 482.972 15.173 481.753 13.7874 480.055C12.4402 478.35 11.5448 476.283 11.1009 473.856C10.3753 469.887 10.8993 466.545 12.6731 463.832C14.4924 461.149 17.5407 459.417 21.8181 458.635L39.4477 455.412L40.198 459.516L22.973 462.665C19.7746 463.25 17.4914 464.484 16.1233 466.367C14.7551 468.25 14.3388 470.655 14.8742 473.584C15.459 476.782 16.8838 479.13 19.1487 480.628C21.4521 482.118 24.3379 482.546 27.806 481.912L43.7593 478.995L44.5096 483.099Z" fill="white"/>
<path d="M22.1809 519.243C21.2861 516.321 21.1199 513.504 21.6822 510.792C22.256 508.117 23.4845 505.774 25.3679 503.763C27.2886 501.741 29.6911 500.289 32.5752 499.405C35.4593 498.522 38.2446 498.386 40.9309 498.997C43.6172 499.608 45.947 500.861 47.9202 502.756C49.9049 504.688 51.3447 507.115 52.2394 510.037C53.0195 512.584 53.2078 515.005 52.8045 517.3C52.4501 519.621 51.4955 521.654 49.9409 523.4L47.0063 521.042C48.1688 519.621 48.8765 518.052 49.1293 516.336C49.4196 514.608 49.2952 512.864 48.756 511.104C48.1022 508.969 47.0245 507.189 45.5229 505.764C44.0703 504.365 42.3147 503.449 40.256 503.014C38.2088 502.617 36.0615 502.762 33.8141 503.451C31.5293 504.15 29.65 505.238 28.1764 506.713C26.7517 508.215 25.8105 509.958 25.3528 511.941C24.9441 513.951 25.0666 516.024 25.7205 518.159C26.2596 519.919 27.1145 521.439 28.285 522.72C29.4555 524 30.9203 524.903 32.6793 525.43L31.5687 529.027C29.3028 528.451 27.3545 527.306 25.7237 525.594C24.1304 523.869 22.9495 521.752 22.1809 519.243Z" fill="white"/>
<path d="M64.2166 542.59C65.8052 546.299 66.0873 549.545 65.063 552.327C64.0748 555.094 61.7622 557.257 58.1252 558.814L40.5165 566.356L38.9434 562.683L43.3726 560.786C41.526 560.554 39.8262 559.769 38.2731 558.432C36.7355 557.13 35.4731 555.327 34.4861 553.022C33.1289 549.853 32.8055 547.009 33.5159 544.488C34.2264 541.968 35.8239 540.176 38.3086 539.112C40.7212 538.079 43.0359 538.11 45.2526 539.206C47.4847 540.338 49.4181 542.813 51.0529 546.63L54.9163 555.65L56.6447 554.91C59.0934 553.861 60.6549 552.383 61.3291 550.475C62.0394 548.551 61.8317 546.275 60.7058 543.646C59.9347 541.846 58.8883 540.248 57.5667 538.854C56.2811 537.444 54.8617 536.369 53.3085 535.628L55.431 532.673C57.2722 533.589 58.9487 534.917 60.4606 536.656C62.0084 538.379 63.2604 540.357 64.2166 542.59ZM37.7654 552.321C38.6907 554.481 39.9711 556.128 41.6065 557.26C43.278 558.376 45.2119 558.912 47.4083 558.866L52.0535 556.876L48.2364 547.964C46.1544 543.103 43.4209 541.397 40.036 542.847C38.3795 543.556 37.3351 544.749 36.9026 546.426C36.5062 548.087 36.7937 550.052 37.7654 552.321Z" fill="white"/>
<path d="M57.5265 594.868C56.5334 594.515 55.5847 593.915 54.6806 593.068C53.8295 592.237 53.1055 591.271 52.5085 590.169C51.1279 587.62 50.7534 585.283 51.385 583.159C52.0165 581.035 53.5895 579.292 56.104 577.93L72.5345 569.031L69.9039 564.174L73.004 562.495L75.6346 567.352L81.5764 564.133L83.5633 567.802L77.6215 571.02L82.0991 579.287L78.999 580.966L74.5214 572.699L58.2976 581.486C56.6787 582.363 55.6532 583.431 55.2212 584.69C54.8423 585.964 55.0632 587.359 55.8841 588.875C56.2946 589.633 56.8069 590.291 57.4212 590.849C58.0541 591.442 58.7343 591.875 59.462 592.149L57.5265 594.868Z" fill="white"/>
<path d="M87.9836 588.988L90.1942 592.527L63.9816 608.903L61.771 605.365L87.9836 588.988ZM94.8354 587.202C94.3787 586.471 94.2439 585.701 94.4309 584.891C94.6179 584.082 95.0602 583.459 95.7579 583.023C96.4224 582.608 97.1594 582.494 97.9691 582.681C98.7788 582.868 99.4119 583.327 99.8686 584.058C100.325 584.788 100.46 585.559 100.273 586.368C100.119 587.157 99.7101 587.759 99.0457 588.174C98.3148 588.631 97.5445 588.766 96.7348 588.579C95.9251 588.392 95.292 587.933 94.8354 587.202Z" fill="white"/>
<path d="M80.4305 633.281C78.6475 630.897 77.5739 628.349 77.2095 625.638C76.8765 622.903 77.2563 620.271 78.3489 617.742C79.4415 615.213 81.1956 613.045 83.6113 611.239C86.0269 609.433 88.6021 608.363 91.3369 608.03C94.0717 607.697 96.6879 608.088 99.1856 609.204C101.683 610.321 103.824 612.071 105.606 614.455C107.389 616.839 108.463 619.387 108.827 622.098C109.192 624.81 108.816 627.414 107.7 629.912C106.607 632.441 104.853 634.609 102.438 636.415C100.022 638.221 97.4467 639.291 94.7119 639.624C92.0006 639.988 89.3804 639.624 86.8514 638.532C84.3537 637.416 82.2134 635.665 80.4305 633.281ZM83.3951 631.064C84.7088 632.821 86.274 634.096 88.0905 634.89C89.9618 635.692 91.928 635.934 93.989 635.616C96.0499 635.297 98.0216 634.434 99.9039 633.027C101.786 631.619 103.171 629.972 104.059 628.085C104.947 626.198 105.256 624.256 104.984 622.257C104.768 620.267 104.003 618.394 102.689 616.637C101.375 614.88 99.7826 613.601 97.9113 612.799C96.0948 612.005 94.1443 611.751 92.0599 612.038C89.9989 612.357 88.0272 613.22 86.1449 614.627C84.2626 616.035 82.8774 617.682 81.9894 619.569C81.1249 621.487 80.8009 623.441 81.0175 625.432C81.2888 627.43 82.0814 629.307 83.3951 631.064Z" fill="white"/>
<path d="M133.337 647.143C136.004 649.958 137.295 652.972 137.208 656.184C137.177 659.397 135.597 662.486 132.469 665.45L119.459 677.775L116.589 674.747L129.301 662.704C131.633 660.495 132.858 658.228 132.976 655.903C133.094 653.579 132.129 651.336 130.082 649.175C127.792 646.758 125.248 645.525 122.451 645.477C119.709 645.431 117.072 646.607 114.541 649.005L102.768 660.158L99.8988 657.13L122.336 635.873L125.084 638.773L120.946 642.693C123.093 642.225 125.223 642.366 127.336 643.115C129.505 643.867 131.505 645.209 133.337 647.143Z" fill="white"/>
<path d="M154.628 691.589C153.926 691.025 153.53 690.329 153.44 689.503C153.375 688.647 153.637 687.852 154.226 687.119C154.815 686.387 155.523 685.975 156.349 685.886C157.199 685.765 157.976 685.988 158.678 686.552C159.38 687.117 159.764 687.827 159.829 688.684C159.949 689.535 159.715 690.326 159.126 691.059C158.537 691.792 157.801 692.206 156.92 692.302C156.094 692.391 155.33 692.154 154.628 691.589Z" fill="white"/>
<path d="M190.805 695.554L194.284 697.857L177.217 723.626L173.739 721.322L190.805 695.554ZM196.3 691.088C195.582 690.612 195.14 689.967 194.975 689.153C194.809 688.338 194.954 687.588 195.408 686.902C195.84 686.249 196.464 685.84 197.278 685.674C198.093 685.509 198.859 685.664 199.578 686.14C200.296 686.616 200.738 687.261 200.904 688.075C201.091 688.857 200.968 689.575 200.535 690.228C200.059 690.946 199.414 691.388 198.6 691.554C197.785 691.719 197.019 691.564 196.3 691.088Z" fill="white" fill-opacity="0.73"/>
<path d="M220.22 712.87C223.632 714.714 225.797 717.176 226.715 720.255C227.686 723.319 227.147 726.746 225.098 730.536L216.576 746.302L212.906 744.318L221.233 728.914C222.76 726.088 223.218 723.553 222.606 721.307C221.994 719.062 220.379 717.231 217.76 715.815C214.831 714.232 212.03 713.853 209.357 714.679C206.737 715.489 204.598 717.428 202.94 720.495L195.227 734.761L191.557 732.777L206.256 705.588L209.771 707.488L207.06 712.502C208.954 711.388 211.021 710.858 213.263 710.913C215.558 710.951 217.877 711.603 220.22 712.87Z" fill="white" fill-opacity="0.73"/>
<path d="M259.555 730.739C263.169 732.145 265.623 734.319 266.916 737.26C268.26 740.179 268.151 743.647 266.588 747.662L260.089 764.364L256.201 762.851L262.551 746.533C263.716 743.539 263.856 740.966 262.97 738.814C262.084 736.662 260.254 735.046 257.479 733.966C254.376 732.758 251.55 732.73 249 733.882C246.501 735.011 244.619 737.2 243.355 740.449L237.473 755.563L233.585 754.05L244.794 725.246L248.518 726.695L246.451 732.007C248.192 730.667 250.177 729.884 252.409 729.66C254.691 729.413 257.073 729.772 259.555 730.739Z" fill="white" fill-opacity="0.73"/>
<path d="M290.018 773.236C287.132 772.503 284.696 771.197 282.708 769.317C280.73 767.4 279.37 765.114 278.63 762.46C277.89 759.807 277.891 757.018 278.634 754.095C279.377 751.171 280.708 748.721 282.625 746.742C284.542 744.764 286.823 743.424 289.467 742.722C292.111 742.019 294.876 742.035 297.761 742.768C300.647 743.502 303.083 744.808 305.071 746.687C307.059 748.567 308.404 750.829 309.106 753.473C309.847 756.126 309.845 758.915 309.102 761.838C308.359 764.762 307.029 767.213 305.112 769.191C303.232 771.179 300.966 772.543 298.312 773.283C295.668 773.985 292.903 773.97 290.018 773.236ZM290.93 769.648C293.056 770.189 295.075 770.197 296.986 769.672C298.946 769.119 300.627 768.071 302.03 766.528C303.432 764.985 304.423 763.074 305.002 760.796C305.581 758.518 305.623 756.366 305.127 754.341C304.631 752.315 303.65 750.611 302.183 749.227C300.763 747.816 298.99 746.84 296.864 746.299C294.738 745.759 292.695 745.765 290.736 746.318C288.824 746.843 287.148 747.872 285.707 749.405C284.304 750.948 283.314 752.859 282.735 755.137C282.156 757.415 282.114 759.567 282.61 761.592C283.143 763.628 284.12 765.351 285.54 766.763C287.007 768.146 288.804 769.108 290.93 769.648Z" fill="white" fill-opacity="0.73"/>
<path d="M349.989 752.399L332.031 781.067L327.784 780.464L318.574 747.939L322.879 748.55L330.639 776.241L345.917 751.821L349.989 752.399Z" fill="white" fill-opacity="0.73"/>
<path d="M370.813 753.164C374.845 753.313 377.9 754.444 379.978 756.56C382.057 758.635 383.024 761.65 382.878 765.604L382.172 784.747L378.179 784.6L378.356 779.785C377.358 781.355 375.922 782.556 374.048 783.389C372.215 784.223 370.045 784.593 367.539 784.501C364.095 784.374 361.385 783.451 359.41 781.731C357.435 780.012 356.497 777.802 356.597 775.101C356.694 772.478 357.711 770.399 359.649 768.863C361.627 767.329 364.69 766.638 368.84 766.791L378.646 767.153L378.715 765.274C378.814 762.612 378.144 760.569 376.707 759.144C375.272 757.679 373.125 756.895 370.267 756.789C368.31 756.717 366.419 756.98 364.593 757.579C362.769 758.139 361.191 758.963 359.857 760.051L358.093 756.869C359.708 755.596 361.624 754.647 363.842 754.024C366.062 753.361 368.386 753.074 370.813 753.164ZM368.307 781.236C370.656 781.323 372.691 780.869 374.413 779.874C376.137 778.84 377.448 777.321 378.345 775.315L378.531 770.265L368.842 769.908C363.558 769.713 360.847 771.455 360.711 775.135C360.645 776.936 361.277 778.39 362.608 779.497C363.941 780.566 365.84 781.145 368.307 781.236Z" fill="white" fill-opacity="0.73"/>
<path d="M415.235 781.456C414.491 782.203 413.544 782.805 412.392 783.261C411.277 783.676 410.094 783.918 408.842 783.987C405.948 784.148 403.675 783.489 402.024 782.011C400.373 780.533 399.468 778.366 399.31 775.511L398.278 756.854L392.763 757.159L392.568 753.639L398.083 753.333L397.709 746.586L401.875 746.356L402.248 753.103L411.636 752.583L411.83 756.104L402.443 756.623L403.463 775.046C403.565 776.884 404.092 778.267 405.046 779.195C406.037 780.082 407.393 780.478 409.114 780.382C409.974 780.335 410.788 780.152 411.555 779.835C412.361 779.516 413.044 779.086 413.602 778.545L415.235 781.456Z" fill="white" fill-opacity="0.73"/>
<path d="M422.99 751.34L427.131 750.84L430.836 781.525L426.695 782.025L422.99 751.34ZM424.28 744.378C423.424 744.482 422.669 744.277 422.015 743.764C421.362 743.251 420.985 742.586 420.887 741.769C420.793 740.992 421.002 740.276 421.515 739.622C422.028 738.968 422.713 738.59 423.568 738.486C424.424 738.383 425.178 738.588 425.832 739.101C426.481 739.575 426.853 740.201 426.947 740.978C427.05 741.834 426.845 742.589 426.332 743.243C425.819 743.896 425.135 744.275 424.28 744.378Z" fill="white" fill-opacity="0.73"/>
<path d="M459.685 776.989C456.769 777.591 454.007 777.481 451.397 776.659C448.78 775.8 446.559 774.338 444.733 772.275C442.907 770.212 441.69 767.703 441.08 764.749C440.471 761.795 440.596 759.009 441.456 756.392C442.316 753.774 443.781 751.572 445.852 749.785C447.923 747.997 450.417 746.803 453.333 746.201C456.248 745.6 459.011 745.71 461.62 746.531C464.23 747.353 466.428 748.799 468.215 750.87C470.041 752.933 471.259 755.442 471.868 758.396C472.478 761.35 472.353 764.136 471.493 766.753C470.671 769.363 469.229 771.58 467.166 773.406C465.094 775.193 462.601 776.388 459.685 776.989ZM458.937 773.364C461.086 772.921 462.905 772.045 464.395 770.738C465.916 769.384 466.97 767.707 467.557 765.706C468.144 763.705 468.2 761.553 467.725 759.251C467.25 756.949 466.347 754.996 465.016 753.39C463.684 751.785 462.057 750.681 460.132 750.078C458.238 749.429 456.217 749.326 454.069 749.769C451.92 750.213 450.086 751.111 448.565 752.465C447.075 753.772 446.017 755.43 445.392 757.439C444.805 759.44 444.749 761.592 445.224 763.894C445.699 766.196 446.602 768.149 447.933 769.755C449.302 771.352 450.934 772.475 452.828 773.124C454.752 773.727 456.789 773.807 458.937 773.364Z" fill="white" fill-opacity="0.73"/>
<path d="M494.924 734.81C498.601 733.578 501.878 733.679 504.754 735.111C507.655 736.494 509.789 739.229 511.158 743.315L516.851 760.308L512.895 761.634L507.333 745.03C506.313 741.984 504.773 739.918 502.715 738.831C500.657 737.744 498.217 737.673 495.394 738.619C492.237 739.676 490.047 741.463 488.824 743.98C487.626 746.447 487.581 749.333 488.688 752.639L493.84 768.017L489.884 769.342L480.066 740.035L483.855 738.766L485.666 744.17C486.145 742.027 487.171 740.155 488.742 738.554C490.337 736.904 492.398 735.656 494.924 734.81Z" fill="white" fill-opacity="0.73"/>
<path d="M543.843 734.399C543.034 734.796 542.236 734.86 541.45 734.591C540.646 734.287 540.038 733.713 539.624 732.869C539.209 732.025 539.137 731.21 539.405 730.423C539.657 729.602 540.187 728.993 540.996 728.596C541.805 728.199 542.611 728.153 543.415 728.456C544.236 728.708 544.854 729.256 545.268 730.1C545.682 730.944 545.746 731.785 545.459 732.624C545.191 733.41 544.652 734.002 543.843 734.399Z" fill="white"/>
<path d="M577.149 693.72C579.556 692.104 582.107 691.194 584.8 690.99C587.472 690.753 590.027 691.256 592.465 692.498C594.903 693.739 596.973 695.629 598.676 698.166C600.401 700.735 601.376 703.383 601.602 706.109C601.828 708.836 601.336 711.407 600.127 713.823C598.929 716.184 597.11 718.184 594.671 719.821C592.589 721.218 590.419 722.062 588.16 722.351C585.911 722.587 583.694 722.235 581.507 721.297L591.103 735.592L587.639 737.917L564.059 702.79L567.377 700.563L570.783 705.637C570.688 703.247 571.181 701.029 572.261 698.983C573.373 696.915 575.003 695.161 577.149 693.72ZM592.363 716.911C594.152 715.71 595.506 714.212 596.423 712.416C597.319 710.588 597.661 708.637 597.448 706.563C597.267 704.466 596.522 702.442 595.212 700.491C593.902 698.539 592.322 697.099 590.472 696.171C588.633 695.188 586.697 694.765 584.666 694.902C582.635 695.039 580.725 695.708 578.936 696.908C577.115 698.131 575.756 699.656 574.86 701.485C573.997 703.291 573.655 705.242 573.836 707.338C574.027 709.38 574.777 711.377 576.087 713.329C577.397 715.28 578.972 716.747 580.811 717.73C582.683 718.691 584.618 719.114 586.617 718.999C588.627 718.83 590.542 718.134 592.363 716.911Z" fill="white" fill-opacity="0.45"/>
<path d="M605.6 680.367C605.035 678.142 605.157 676.011 605.965 673.974C606.804 671.912 608.327 669.972 610.534 668.153L613.112 671.282L612.304 671.872C609.795 673.94 608.466 676.33 608.315 679.043C608.165 681.755 609.236 684.502 611.528 687.283L621.544 699.436L618.325 702.089L598.667 678.238L601.75 675.697L605.6 680.367Z" fill="white" fill-opacity="0.45"/>
<path d="M649.453 654.315L631.077 672.503C633.504 674.621 636.213 675.604 639.206 675.453C642.171 675.275 644.864 673.987 647.286 671.589C648.651 670.239 649.669 668.762 650.342 667.159C650.988 665.528 651.26 663.826 651.158 662.052L654.73 662.32C654.913 664.454 654.57 666.557 653.7 668.63C652.859 670.676 651.561 672.567 649.807 674.303C647.552 676.535 645.079 678.046 642.388 678.835C639.697 679.569 637.024 679.569 634.369 678.835C631.713 678.102 629.325 676.663 627.203 674.519C625.081 672.375 623.639 669.999 622.877 667.391C622.142 664.756 622.114 662.166 622.792 659.621C623.498 657.049 624.867 654.757 626.899 652.745C628.932 650.733 631.224 649.402 633.776 648.75C636.327 648.098 638.903 648.167 641.503 648.956C644.075 649.717 646.436 651.184 648.585 653.355L649.453 654.315ZM629.421 655.293C627.305 657.387 626.198 659.833 626.1 662.63C626.003 665.372 626.932 667.925 628.886 670.289L644.464 654.871C642.12 652.893 639.562 651.951 636.792 652.048C634.022 652.089 631.565 653.171 629.421 655.293Z" fill="white" fill-opacity="0.45"/>
<path d="M674.757 646.827C673.164 648.763 671.362 650.4 669.349 651.738C667.331 653.02 665.488 653.812 663.82 654.114L662.472 650.571C664.08 650.22 665.763 649.499 667.522 648.409C669.25 647.294 670.786 645.92 672.129 644.286C673.921 642.108 674.907 640.23 675.087 638.654C675.262 637.023 674.729 635.697 673.489 634.677C672.611 633.956 671.694 633.683 670.737 633.86C669.75 634.012 668.775 634.427 667.811 635.105C666.817 635.759 665.602 636.712 664.166 637.966C662.21 639.603 660.566 640.863 659.232 641.745C657.869 642.601 656.385 643.08 654.78 643.181C653.201 643.251 651.609 642.627 650.006 641.308C648.009 639.666 647.059 637.49 647.157 634.781C647.254 632.072 648.522 629.235 650.961 626.27C652.23 624.727 653.71 623.358 655.403 622.163C657.065 620.943 658.64 620.108 660.126 619.657L661.556 623.191C658.578 624.038 655.969 625.823 653.729 628.546C652.037 630.604 651.119 632.461 650.974 634.117C650.854 635.743 651.385 637.041 652.565 638.011C653.472 638.758 654.435 639.067 655.452 638.94C656.494 638.783 657.513 638.378 658.506 637.724C659.47 637.046 660.722 636.047 662.264 634.728C664.194 633.12 665.814 631.891 667.122 631.04C668.431 630.188 669.86 629.715 671.409 629.62C672.958 629.524 674.505 630.111 676.048 631.38C678.135 633.097 679.078 635.343 678.875 638.118C678.667 640.838 677.294 643.741 674.757 646.827Z" fill="white" fill-opacity="0.45"/>
<path d="M694.032 595.189L679.756 616.744C682.563 618.322 685.417 618.732 688.315 617.973C691.181 617.193 693.555 615.382 695.437 612.541C696.497 610.941 697.193 609.287 697.524 607.58C697.823 605.852 697.742 604.13 697.281 602.415L700.832 601.948C701.447 604 701.54 606.129 701.112 608.336C700.706 610.51 699.821 612.626 698.458 614.683C696.706 617.329 694.594 619.312 692.121 620.634C689.636 621.902 687.02 622.448 684.27 622.271C681.521 622.095 678.889 621.174 676.374 619.508C673.859 617.843 671.963 615.811 670.684 613.414C669.428 610.984 668.871 608.454 669.015 605.825C669.181 603.162 670.054 600.639 671.633 598.255C673.212 595.871 675.184 594.099 677.549 592.941C679.914 591.782 682.449 591.323 685.156 591.565C687.829 591.785 690.439 592.739 692.987 594.426L694.032 595.189ZM674.621 600.234C672.977 602.716 672.393 605.336 672.868 608.095C673.333 610.799 674.763 613.109 677.159 615.024L689.262 596.751C686.563 595.293 683.867 594.893 681.175 595.553C678.471 596.159 676.287 597.719 674.621 600.234Z" fill="white" fill-opacity="0.45"/>
<path d="M692.738 575.36C691.371 573.516 690.674 571.499 690.648 569.307C690.641 567.081 691.312 564.708 692.663 562.187L696.237 564.102L695.713 564.955C694.178 567.821 693.856 570.537 694.747 573.103C695.639 575.67 697.673 577.804 700.85 579.506L714.731 586.943L712.76 590.62L685.516 576.024L687.403 572.502L692.738 575.36Z" fill="white" fill-opacity="0.45"/>
<path d="M707.596 529.141L730.579 553.962L728.888 557.904L695.086 558.301L696.801 554.305L725.557 554.045L705.974 532.921L707.596 529.141Z" fill="white" fill-opacity="0.45"/>
<path d="M713.451 510.152C714.639 506.295 716.523 503.637 719.104 502.178C721.647 500.707 724.81 500.553 728.591 501.717L746.898 507.355L745.723 511.174L741.118 509.756C742.376 511.127 743.165 512.825 743.484 514.849C743.815 516.837 743.611 519.028 742.873 521.425C741.859 524.719 740.266 527.098 738.094 528.56C735.922 530.023 733.544 530.357 730.961 529.561C728.453 528.789 726.708 527.268 725.726 524.998C724.756 522.691 724.882 519.553 726.104 515.585L728.992 506.206L727.195 505.653C724.649 504.869 722.502 504.987 720.753 506.006C718.967 507.013 717.654 508.884 716.812 511.617C716.236 513.489 716.001 515.384 716.107 517.302C716.176 519.208 716.563 520.947 717.268 522.517L713.738 523.397C712.926 521.508 712.506 519.411 712.478 517.107C712.412 514.791 712.737 512.473 713.451 510.152ZM739.919 519.838C740.611 517.592 740.699 515.508 740.184 513.587C739.631 511.655 738.502 509.995 736.798 508.61L731.968 507.123L729.115 516.389C727.559 521.443 728.54 524.512 732.059 525.596C733.781 526.126 735.35 525.891 736.764 524.892C738.141 523.882 739.193 522.197 739.919 519.838Z" fill="white" fill-opacity="0.45"/>
<path d="M752.366 474.621C752.895 475.533 753.231 476.604 753.373 477.834C753.485 479.018 753.413 480.224 753.156 481.451C752.561 484.288 751.336 486.313 749.481 487.525C747.626 488.737 745.299 489.05 742.501 488.463L724.212 484.631L723.079 490.037L719.629 489.313L720.762 483.907L714.148 482.521L715.004 478.438L721.617 479.824L723.546 470.623L726.996 471.346L725.068 480.547L743.126 484.332C744.928 484.71 746.401 484.558 747.544 483.877C748.657 483.15 749.391 481.942 749.744 480.255C749.921 479.412 749.955 478.579 749.848 477.756C749.748 476.894 749.509 476.124 749.131 475.444L752.366 474.621Z" fill="white" fill-opacity="0.45"/>
<path d="M725.332 459.501L725.935 455.373L756.519 459.836L755.916 463.964L725.332 459.501ZM718.951 456.432C718.827 457.285 718.431 457.96 717.765 458.456C717.099 458.953 716.359 459.142 715.545 459.023C714.769 458.91 714.133 458.52 713.637 457.854C713.14 457.188 712.954 456.428 713.079 455.575C713.203 454.723 713.598 454.048 714.265 453.551C714.892 453.049 715.594 452.855 716.369 452.968C717.222 453.092 717.896 453.487 718.393 454.154C718.889 454.82 719.076 455.58 718.951 456.432Z" fill="white" fill-opacity="0.45"/>
<path d="M759.841 429.619C759.662 432.591 758.836 435.23 757.363 437.535C755.852 439.838 753.862 441.602 751.394 442.828C748.927 444.053 746.188 444.575 743.177 444.394C740.166 444.213 737.509 443.367 735.206 441.855C732.903 440.343 731.158 438.355 729.972 435.889C728.786 433.424 728.282 430.706 728.46 427.734C728.639 424.762 729.465 422.124 730.937 419.818C732.41 417.513 734.379 415.767 736.844 414.581C739.312 413.356 742.051 412.833 745.062 413.014C748.073 413.195 750.73 414.042 753.033 415.553C755.338 417.026 757.104 418.996 758.329 421.464C759.515 423.929 760.019 426.647 759.841 429.619ZM756.145 429.397C756.277 427.208 755.906 425.223 755.031 423.444C754.12 421.623 752.775 420.169 750.996 419.081C749.217 417.993 747.154 417.378 744.808 417.237C742.462 417.096 740.341 417.459 738.444 418.327C736.548 419.194 735.058 420.478 733.974 422.179C732.854 423.838 732.229 425.763 732.097 427.953C731.965 430.142 732.355 432.148 733.266 433.968C734.14 435.747 735.466 437.201 737.243 438.328C739.022 439.416 741.084 440.03 743.43 440.171C745.777 440.312 747.898 439.949 749.795 439.082C751.694 438.176 753.203 436.893 754.323 435.233C755.406 433.532 756.014 431.587 756.145 429.397Z" fill="white" fill-opacity="0.45"/>
<path d="M728.408 384.955C728.178 381.084 729.131 377.947 731.265 375.544C733.357 373.105 736.554 371.758 740.856 371.504L758.746 370.445L758.993 374.61L741.513 375.644C738.306 375.834 735.909 376.78 734.323 378.483C732.736 380.186 732.031 382.523 732.207 385.495C732.403 388.819 733.557 391.4 735.667 393.237C737.736 395.037 740.51 395.835 743.99 395.629L760.18 394.671L760.426 398.835L729.573 400.661L729.337 396.673L735.026 396.336C733.082 395.313 731.543 393.834 730.408 391.9C729.232 389.929 728.565 387.614 728.408 384.955Z" fill="white" fill-opacity="0.45"/>
</g>
<defs>
<linearGradient id="paint0_linear_146_2" x1="386.136" y1="120.898" x2="386.136" y2="690.313" gradientUnits="userSpaceOnUse">
<stop stop-color="white"/>
<stop offset="1" stop-color="white" stop-opacity="0.4"/>
</linearGradient>
<clipPath id="clip0_146_2">
<rect width="769" height="798" fill="white"/>
</clipPath>
</defs>
</svg>
